<svg width="315" height="252" viewBox="0 0 315 252" fill="none" xmlns="http://www.w3.org/2000/svg">
<g clip-path="url(#clip0_4219_13541)">
<path d="M268.5 90.3L269.5 73C269.5 73 275.8 74.7 279.6 80C283.4 85.3 289.3 83.6 289.3 83.6C289.3 83.6 283 91.6 275.8 87.1C272.3 84.9 268.5 90.4 268.5 90.4V90.3Z" fill="#ED1941"/>
<path d="M262 117.8L268.1 118.4L269.8 71.1996L267.4 71.0996L262 117.8Z" fill="#375570"/>
<path d="M297.2 118.998L299.8 105.398C299.8 105.398 304.7 107.498 307.1 112.198C309.5 116.898 314.4 116.198 314.4 116.198C314.4 116.198 308.6 121.798 303.4 117.398C300.8 115.298 297.2 119.098 297.2 119.098V118.998Z" fill="#ED1941"/>
<path d="M289.2 139.999L293.9 141.199L300.2 103.999L298.3 103.699L289.2 139.999Z" fill="#375570"/>
<path d="M4.29999 111.001L1.89999 97.3008C1.89999 97.3008 7.09999 97.3008 11 100.601C14.9 104.001 19.2 101.401 19.2 101.401C19.2 101.401 15.8 108.901 9.39999 106.901C6.29999 105.901 4.29999 111.001 4.29999 111.001Z" fill="#ED1941"/>
<path d="M4.3 133.601L9.1 132.901L1.9 95.8008L0 96.3008L4.3 133.601Z" fill="#375570"/>
<path d="M26.9 79.1004L24.5 61.9004C24.5 61.9004 31 62.1004 35.8 66.5004C40.5 70.9004 46 67.8004 46 67.8004C46 67.8004 41.4 77.0004 33.5 74.2004C29.6 72.9004 27 79.0004 27 79.0004L26.9 79.1004Z" fill="#ED1941"/>
<path d="M25.9 107.3L32 106.6L24.5 60L22.1 60.6L25.9 107.3Z" fill="#375570"/>
<path d="M15.8 185.4C10.4 185.9 7.1 193 8 198.9C8.9 204.9 12.7 209.7 16.8 213.7C30.8 227.5 48.6 235.4 66.4 241.4C72.2 243.3 78.1 245.1 84.1 244.7C89.3 244.3 94.3 242.3 99.2 240.1C100.4 239.6 101.7 238.9 102.2 237.5C102.9 235.2 100.7 233.1 98.8 232C72.5 215.4 45.8 199.5 18.8 184.5" fill="#156A44"/>
<path d="M199 237.401C198.2 240.801 200.9 244.301 203.9 245.201C206.9 246.101 210.1 245.201 213.2 244.201C231.4 238.401 249.2 231.201 266.4 222.501C270.5 220.401 274.7 218.301 278.4 215.401C282.7 212.101 286.6 207.601 287.9 202.001C289.3 196.401 287.5 189.501 282.9 186.801C278.9 184.401 274 185.701 269.7 187.201C243.1 196.401 218.7 213.601 199.8 236.601" fill="#156A44"/>
<path d="M199.4 205.499L286.3 166.199L278.5 203.599L199.1 244.299L199.4 205.499Z" fill="#DEAD88"/>
<path d="M97.6 203.399L12 160.699L18.6 198.299L96.8 242.299L97.6 203.399Z" fill="#DEAD88"/>
<path d="M93.7 200.5L96.3 244.9L199 247L204.7 200.7L93.7 200.5Z" fill="#FFE7C6"/>
<path d="M206.8 178.299L295.8 137.199L288.4 166.499L206 205.899L206.8 178.299Z" fill="#375570"/>
<path d="M93.4 179.601L3.29999 132.301L9.99999 161.901L93.4 204.601V179.601Z" fill="#375570"/>
<path d="M62.4 73.9008L2.29999 127.701L37 149.701L90.5 176.001L208.1 180.401L248.7 160.001L297.5 133.201L224.2 71.0008L152.5 56.3008L62.4 73.9008Z" fill="#ED1941"/>
<path d="M1.39999 127.199L2.39999 134.799L90.9 179.699L90.5 174.099L84.9 171.099L1.39999 127.199Z" fill="#8B172E"/>
<path d="M297.5 133.199L296.3 140.699L208.6 182.099L209.1 176.399L297.5 133.199Z" fill="#8B172E"/>
<path d="M51.1 154.3L53.1 155.5L72 131.8L71.2 131.1L51.1 154.3Z" fill="#8B172E"/>
<path d="M87.1 172.9L88.5 174.4L101.2 142.6L100.7 141.5L87.1 172.9Z" fill="#8B172E"/>
<path d="M26.8 142.3L28.8 143.2L57.8 124.3L56 124.1L26.8 142.3Z" fill="#8B172E"/>
<path d="M1.7 127.399L45.3 116.699L44.9 117.899L2.6 129.799L1.7 127.399Z" fill="#8B172E"/>
<path d="M21.6 109.899L18.6 112.899L49.1 109.699L49.5 108.699L21.6 109.899Z" fill="#8B172E"/>
<path d="M36.2 97L34.4 98.7L54.6 101.4L55 100.4L36.2 97Z" fill="#8B172E"/>
<path d="M46.8 87.5004L59.5 92.6004L60.3 91.6004L48.4 85.9004L46.8 87.5004Z" fill="#8B172E"/>
<path d="M28.7 122.3L57.8 85.5996L59.1 86.1996L30.9 122L28.7 122.3Z" fill="#8B172E"/>
<path d="M28.4 122.7L31.3 121.4L93.2 159.9L92.4 161.5L28.4 122.7Z" fill="#8B172E"/>
<path d="M86.7 174.9L90.4 209.4L206.7 211.7L211.7 177.5L86.7 174.9Z" fill="#526F8D"/>
<path d="M248.2 157.901L246.1 158.901L228 134.601L228.8 133.801L248.2 157.901Z" fill="#8B172E"/>
<path d="M211.6 175L210.3 176.5L198.5 144.1L199 143.1L211.6 175Z" fill="#8B172E"/>
<path d="M272.9 146.8L270.8 147.7L242.5 127.6L244.3 127.5L272.9 146.8Z" fill="#8B172E"/>
<path d="M297.8 133.3L254.5 120.9L254.9 122.2L296.8 135.7L297.8 133.3Z" fill="#8B172E"/>
<path d="M275.4 114.001L278.6 117.001L251.5 113.401L251.2 112.301L275.4 114.001Z" fill="#8B172E"/>
<path d="M260.7 101.5L262.1 103.2L246.3 104.8L245.9 103.9L260.7 101.5Z" fill="#8B172E"/>
<path d="M248.9 91.7004L236.7 93.8004L236.3 93.0004L247.2 90.4004L248.9 91.7004Z" fill="#8B172E"/>
<path d="M271.6 126.8L239 84.9004L237.7 85.4004L269.4 126.4L271.6 126.8Z" fill="#8B172E"/>
<path d="M271.8 127.201L269 125.801L206 161.801L206.7 163.401L271.8 127.201Z" fill="#8B172E"/>
<path d="M64 83.8004L41.1 119.3L148.8 175.8L258.7 123.2L237.5 87.0004L151.9 62.4004L64 83.8004Z" fill="#526F8D"/>
<path d="M64 83.7996L72.6 76.5996L231.2 82.0996L237.5 86.9996L256.3 122.7L148.9 172.5L42.7 118.4L64 83.7996Z" fill="#A8E0F9"/>
<path d="M71.2 77.2L153.4 54L230.5 79.8L250.1 117.6L149.6 160.7L47.7 114.8L71.2 77.2Z" fill="#E8F8FF"/>
<path d="M216.2 171.301L213.7 181.501L85.7 179.201L85 169.801L216.2 171.301Z" fill="#8B172E"/>
<path fill-rule="evenodd" clip-rule="evenodd" d="M94.5 184.4L96.1 205.2L202.3 207.4L205.1 186.5L94.5 184.4Z" fill="#A8E0F9"/>
<path fill-rule="evenodd" clip-rule="evenodd" d="M95 190.5L117.8 205.6L125.1 205.8L97.8 184.5L94.5 184.4L95 190.5Z" fill="#E8F8FF"/>
<path fill-rule="evenodd" clip-rule="evenodd" d="M130.9 205.9L131 204.8L107 184.6H104.7L130.9 205.9Z" fill="#E8F8FF"/>
<path fill-rule="evenodd" clip-rule="evenodd" d="M134.8 185.2L130.6 185.1L131.1 191.1L154.3 206.4L162.4 206.6L134.8 185.2Z" fill="#E8F8FF"/>
<path fill-rule="evenodd" clip-rule="evenodd" d="M168.6 206.699H169.7V206.399L144.6 185.299H142.2L168.6 206.699Z" fill="#E8F8FF"/>
<path fill-rule="evenodd" clip-rule="evenodd" d="M174.5 185.899L170.3 185.799L170.8 191.899L194 207.199L202.1 207.399L174.5 185.899Z" fill="#E8F8FF"/>
<path fill-rule="evenodd" clip-rule="evenodd" d="M202.9 203.1L203.1 201.9L184.3 186.1L181.8 186L202.9 203.1Z" fill="#E8F8FF"/>
<path fill-rule="evenodd" clip-rule="evenodd" d="M129.2 182.6H131.8L131.9 207.2L127.7 207.4L129.2 182.6Z" fill="#526F8D"/>
<path fill-rule="evenodd" clip-rule="evenodd" d="M169.2 208.2L171.8 208.3L172.6 183.7L168.4 183.4L169.2 208.2Z" fill="#526F8D"/>
<path fill-rule="evenodd" clip-rule="evenodd" d="M82.7 181.399L84.4 195.899L12.7 158.699L9.7 142.199L82.7 181.399Z" fill="#A8E0F9"/>
<path fill-rule="evenodd" clip-rule="evenodd" d="M26.6 165.899L14.1 144.599L9.7 142.199L11.2 150.599L19 161.999L26.6 165.899Z" fill="#E8F8FF"/>
<path fill-rule="evenodd" clip-rule="evenodd" d="M32.2 168.8L33.6 169.5L22.4 149.1L20.4 148L32.2 168.8Z" fill="#E8F8FF"/>
<path fill-rule="evenodd" clip-rule="evenodd" d="M43.5 160.399L33.7 155.199L33.6 155.599L48.5 177.199L55.6 180.999L43.5 160.399Z" fill="#E8F8FF"/>
<path fill-rule="evenodd" clip-rule="evenodd" d="M61 183.799L62.4 184.499L51.6 164.799L49.7 163.699L61 183.799Z" fill="#E8F8FF"/>
<path fill-rule="evenodd" clip-rule="evenodd" d="M69.5 174.398L59.3 168.898L74.1 190.498L81.2 194.198L69.5 174.398Z" fill="#E8F8FF"/>
<path fill-rule="evenodd" clip-rule="evenodd" d="M75.7 177.699L84 192.299L83.7 189.799L77.6 178.699L75.7 177.699Z" fill="#E8F8FF"/>
<path d="M60.7 168.898L62.5 169.698L65.1 188.898L62 187.598L60.7 168.898Z" fill="#375570"/>
<path d="M31.6 152.199L33.5 152.699L35.8 172.699L32.9 170.999L31.6 152.199Z" fill="#375570"/>
<path fill-rule="evenodd" clip-rule="evenodd" d="M216.1 183.7L213.9 198L286.5 163.9L290.1 147.6L216.1 183.7Z" fill="#A8E0F9"/>
<path fill-rule="evenodd" clip-rule="evenodd" d="M272.4 170.5L285.6 149.8L290.1 147.6L288.3 155.9L280.2 166.9L272.4 170.5Z" fill="#E8F8FF"/>
<path fill-rule="evenodd" clip-rule="evenodd" d="M266.8 173.2L265.4 173.8L277.1 153.9L279.2 152.9L266.8 173.2Z" fill="#E8F8FF"/>
<path fill-rule="evenodd" clip-rule="evenodd" d="M255.7 164.4L265.7 159.5L265.8 160L250.3 180.9L243.1 184.3L255.7 164.4Z" fill="#E8F8FF"/>
<path fill-rule="evenodd" clip-rule="evenodd" d="M237.6 186.9L236.2 187.5L247.5 168.4L249.5 167.4L237.6 186.9Z" fill="#E8F8FF"/>
<path fill-rule="evenodd" clip-rule="evenodd" d="M229.4 177.2L239.8 172.1V172.2L224.4 193.1L217.1 196.5L229.4 177.2Z" fill="#E8F8FF"/>
<path fill-rule="evenodd" clip-rule="evenodd" d="M223.1 180.299L214.5 194.499L214.8 191.999L221.2 181.199L223.1 180.299Z" fill="#E8F8FF"/>
<path d="M238.4 172.1L236.6 172.8L233.4 191.8L236.5 190.7L238.4 172.1Z" fill="#375570"/>
<path d="M267.9 156.699L266 157.099L263.1 176.899L266 175.399L267.9 156.699Z" fill="#375570"/>
<path d="M207.4 239.9L211.3 211.8L246.1 195.1L242.1 222L207.4 239.9Z" fill="#FFE7C6"/>
<path d="M250.9 192.699L248.5 218.999L273.8 205.899L278 178.699L250.9 192.699Z" fill="#FFE7C6"/>
<path d="M213 214.6L213.2 220.8L242.1 208.1L242.7 200.9L213 214.6Z" fill="#DEAD88"/>
<path d="M252.8 195.9L252.2 203.3L272.6 193.5L274.2 185.4L252.8 195.9Z" fill="#DEAD88"/>
<path d="M87.7 237.499L84.6 209.199L50.4 191.199L53.5 218.199L87.7 237.499Z" fill="#FFE7C6"/>
<path d="M45.4 187.7L47 214.1L22.1 199.9L18.7 172.6L45.4 187.7Z" fill="#FFE7C6"/>
<path d="M82.8 212L82.5 218.2L54 204.3L53.6 197.1L82.8 212Z" fill="#DEAD88"/>
<path d="M43.4 190.7L43.8 198.2L23.7 187.6L22.4 179.5L43.4 190.7Z" fill="#DEAD88"/>
<path d="M127.5 219.1L137.8 219.3L137.4 243.2L129.5 242.9L127.5 219.1Z" fill="#A8E0F9"/>
<path d="M138.6 219.699L137.8 243.199L161.7 243.799L160.7 220.499L138.6 219.699Z" fill="#A8E0F9"/>
<path d="M161.7 220.299H170L168.8 243.999L162.3 243.699L161.7 220.299Z" fill="#A8E0F9"/>
<path d="M127.7 220.199L169.4 235.499L169.1 236.999L127.7 223.399V220.199Z" fill="#E8F8FF"/>
<path d="M128.1 224.6L169 237.9L168.9 239L128.1 225.6V224.6Z" fill="#E8F8FF"/>
<path d="M128.7 232.4L168.3 243.5L166.3 243.4L129 233.9L128.7 232.4Z" fill="#E8F8FF"/>
<path d="M126.9 218.6L127.6 245.3L169.7 246.5L171.1 219.6L126.9 218.7V218.6ZM136.6 242.6L129.7 242.3L128 219.6L137 219.8L136.6 242.6ZM138.3 242.6L139.1 220.1L160.1 220.9L161.1 243.2L138.3 242.6ZM168.5 243.4L162.9 243.2L162.5 221.1H169.5L168.5 243.5V243.4Z" fill="#D49839"/>
<path d="M90.7 218.1C90.8 219.6 91.9 220.9 93.1 220.9C94.3 220.9 95.5 219.7 95.7 218.2C95.9 219.7 97 221 98.3 221C99.6 221 100.7 219.9 101 218.3C101 219.7 102 220.9 103.1 220.9C104.2 220.9 105.2 219.7 105.3 218.3C105.7 220.7 109 221 109.7 218.7C110 220.2 111.2 221.3 112.4 221.4C113.6 221.4 114.9 220.4 115.3 219C116.2 221.3 119.4 221.4 120.3 219.1C121.5 221.8 125.4 221.6 126.4 218.7C128 221.2 131.3 221.7 133.3 219.8C134.4 222 137.5 221.8 138.4 219.5C139.7 221.7 142.8 221.8 144.1 219.7C146.5 221.5 149.6 221.7 152.1 220.2C153.5 221.8 156 221.6 157.4 219.9C158.9 221.9 161.7 222.2 163.5 220.4C165.2 222.2 168.1 222.2 169.8 220.4C171.4 222.3 174.2 222.4 176 220.7C177.7 222.7 180.7 222.5 182.2 220.3C183.9 222.1 186.6 222.5 188.6 221.1C190 223 192.7 223 194.2 221.3C195.5 223.2 198.2 223 199.4 221.1C201.2 223.3 205.7 223.9 206.2 219.3C188.9 212.8 170.4 213.4 152.3 213.1C138 212.8 123.6 212.5 109.3 213.2C102.6 213.5 96.6 213.9 90.4 217.2" fill="#8B172E"/>
<path d="M92.6 209.301L203.8 211.201L206.4 219.101L90.5 217.101L92.6 209.301Z" fill="#ED1941"/>
<path d="M174 224.301L173.5 238.601L197.1 240.001L199.7 224.901L174 224.301Z" fill="#D49839"/>
<path d="M175.4 225.801L175.1 237.301L196 238.501L198 226.301L175.4 225.801Z" fill="#A8E0F9"/>
<path d="M189.9 238.2L193.2 238.4L175.3 230.4L175.2 233.4L189.9 238.2Z" fill="#E8F8FF"/>
<path d="M196 238.301L197 232.401L175.7 225.801H175.4L175.3 228.201L196 238.301Z" fill="#E8F8FF"/>
<path d="M123.7 223.3L123.8 237.6L100.2 238L98 222.9L123.7 223.3Z" fill="#D49839"/>
<path d="M122.3 224.801L122.2 236.201L101.3 236.601L99.7 224.301L122.3 224.801Z" fill="#A8E0F9"/>
<path d="M99.7 224.301V224.401L100 226.801L121.4 236.201H122.2V230.501L100.1 224.301H99.7Z" fill="#E8F8FF"/>
<path d="M114.8 236.4L118.1 236.3L100.3 229.1L100.7 232.2L114.8 236.4Z" fill="#E8F8FF"/>
<path d="M215.9 199.7L216.8 198.9L227.5 210.1L228.1 212.4L222.2 212.1L214 220L215.9 199.7Z" fill="#4B7510"/>
<path d="M216.8 198.901L229 193.301L228.1 212.401L222.1 210.301L215.1 217.601L216.8 198.901Z" fill="#C5DC6F"/>
<path d="M264.8 176.599L265.7 175.799L276.4 186.999L276.9 189.299L271 188.999L262.8 196.899L264.8 176.599Z" fill="#4B7510"/>
<path d="M265.7 175.799L277.8 170.199L276.9 189.299L270.9 187.199L263.9 194.499L265.7 175.799Z" fill="#C5DC6F"/>
<path d="M241.7 188.099L242.6 187.299L253.3 198.499L253.9 200.799L247.9 200.499L239.8 208.399L241.7 188.099Z" fill="#3A5116"/>
<path d="M242.6 187.299L254.7 181.699L253.9 200.799L247.9 198.699L240.9 205.999L242.6 187.299Z" fill="#61AD00"/>
<path d="M80.3 197L79.5 196.1L68.4 206.9L67.8 209.1H73.8L81.6 217.3L80.3 197Z" fill="#4B7510"/>
<path d="M79.5 196.1L67.5 190L67.8 209.1L73.8 207.3L80.6 214.9L79.5 196.1Z" fill="#C5DC6F"/>
<path d="M32.2 172L31.4 171.1L20.4 181.8L19.7 184.1L25.7 184L33.6 192.3L32.2 172Z" fill="#4B7510"/>
<path d="M31.4 171.1L19.4 165L19.7 184.1L25.7 182.3L32.5 189.8L31.4 171.1Z" fill="#C5DC6F"/>
<path d="M55 184.4L54.1 183.5L43.1 194.3L42.4 196.5H48.4L56.3 204.7L55 184.4Z" fill="#3A5116"/>
<path d="M54.1 183.5L42.1 177.4L42.4 196.5L48.5 194.7L55.2 202.3L54.1 183.5Z" fill="#61AD00"/>
<path d="M96.2 243.1L96.3 244.9L127.6 245.5L127.5 244.2L96.2 243.1Z" fill="#DEAD88"/>
<path d="M199.4 244.199L170 244.799L169.9 246.399L199 246.999L199.4 244.199Z" fill="#DEAD88"/>
<path d="M205.3 248C205.3 248 191.5 253.1 199.6 247.3C199.6 247.3 191.4 246.5 190.5 243.1C190 241.2 192.7 239.4 197.4 242.6C197.4 242.6 192 234.8 193.9 229.4C195 226.3 201.2 225 203.3 238.7C203.3 238.7 202.6 225.1 208 222.7C210.1 221.7 216.1 221.9 210.5 239.5C210.5 239.5 216.5 232.8 221.6 236.7C223.9 238.5 222.2 241.1 214.4 243.7C214.4 243.7 220.8 243.2 222.4 245C223.8 246.7 221.1 250.7 212.6 247.8C212.6 247.8 215.9 250.3 214.6 251.3C213.9 251.9 210.2 251.5 205.2 247.9L205.3 248Z" fill="#156A44"/>
<path d="M218 245.6C219.9 245.8 221.2 246.2 221.2 246.2C220.1 245.8 219 245.6 218 245.4C218.8 244.7 220 244.5 220 244.5C218.8 244.6 218 245.2 217.8 245.4C216.9 245.3 216.1 245.2 215.3 245.2C216.1 244.6 217.2 244.3 217.2 244.3C216 244.4 215.2 245 215 245.2C214 245.2 213 245.2 212.1 245.4C212.7 244.5 213.8 243.9 213.8 243.9C212.7 244.3 212 245.2 211.9 245.4C208.6 245.9 206.4 247.1 205.6 247.6C206.4 246.1 207.3 244.8 208.3 243.7C210.7 244.1 211.6 243.5 211.6 243.5C210 243.8 208.8 243.6 208.4 243.5C209.2 242.7 210 242 210.9 241.4C212.9 242.3 213.9 242 213.9 242C212.3 241.9 211.2 241.4 211.1 241.3C212.1 240.6 213 240.1 214 239.7C215.4 240.7 216.2 240.5 216.2 240.5C215.1 240.2 214.4 239.8 214.2 239.6C214.9 239.3 215.6 239 216.2 238.8C217.7 239.9 218.4 239.7 218.4 239.7C217.2 239.4 216.4 238.9 216.3 238.8C217.5 238.4 218.6 238.2 219.2 238.1C218.1 238.2 217.2 238.4 216.3 238.7C216.4 238.5 216.9 237.8 217.8 237C217.8 237 217 237.2 216.1 238.8C215.4 239 214.7 239.2 214.1 239.5C214.2 239.3 214.7 238.6 215.6 237.8C215.6 237.8 214.8 238 213.9 239.5C212.9 239.9 212 240.4 211.3 240.9C211.5 240.4 211.9 239.6 212.6 238.7C212.6 238.7 211.8 239.1 211 241C210 241.7 209.1 242.5 208.4 243.2C208.4 242.7 208.7 241.6 209.3 240.3C209.3 240.3 208.4 241 208.2 243.4C206.6 245.1 205.8 246.7 205.5 247.4C205.5 246.1 205.8 244 206.2 241.6C208.8 240 209.3 238.9 209.3 238.9C208.2 240 206.7 240.9 206.2 241.1C206.4 239.9 206.6 238.7 206.8 237.4C209.3 235.8 209.8 234.8 209.8 234.8C208.8 235.8 207.4 236.7 206.8 237C207 235.6 207.3 234.3 207.6 233C210.1 231.4 210.6 230.4 210.6 230.4C209.6 231.4 208.2 232.3 207.6 232.6C207.9 231.2 208.1 229.8 208.4 228.7C210.9 227.1 211.6 226 211.6 226C210.5 227.1 208.9 228 208.5 228.3C208.9 226.3 209.2 225 209.2 225C208.8 226.1 208.5 227.3 208.2 228.4C207.9 228.1 206.7 226.6 206.3 225.4C206.3 225.4 206.8 227.1 208.1 228.7C207.8 230 207.4 231.4 207.2 232.7C206.9 232.3 205.7 230.9 205.3 229.8C205.3 229.8 205.8 231.5 207.1 233.1C206.8 234.5 206.6 235.9 206.4 237.2C206.1 236.9 204.9 235.4 204.5 234.2C204.5 234.2 205 235.9 206.3 237.6C206.1 238.9 205.9 240.2 205.8 241.3C205.5 241 204.3 239.5 203.9 238.3C203.9 238.3 204.4 240.1 205.7 241.7C205.3 244.5 205.2 246.6 205.1 247.5C203.6 245.8 202.4 243.9 201.3 242C202.3 239.7 201.9 238.7 201.9 238.7C201.8 240.3 201.4 241.5 201.2 241.8C200.6 240.7 200.1 239.7 199.6 238.7C200.7 236.8 200.4 235.9 200.4 235.9C200.2 237.3 199.7 238.2 199.5 238.5C199 237.5 198.6 236.5 198.2 235.5C199.3 234.2 199.3 233.4 199.3 233.4C198.9 234.5 198.4 235.1 198.2 235.3C197.9 234.5 197.6 233.7 197.3 233C198.5 231.7 198.4 230.9 198.4 230.9C197.9 232.1 197.4 232.7 197.2 232.9C196.6 231.3 196.3 230.2 196.3 230.2C196.5 231.1 196.7 232 196.9 232.8C196.7 232.7 195.9 232.3 195.1 231.4C195.1 231.4 195.4 232.2 197 232.9C197.2 233.7 197.5 234.5 197.8 235.3C197.5 235.3 196.7 234.9 195.8 234.3C195.8 234.3 196.2 235 197.8 235.4C198.2 236.5 198.7 237.5 199.1 238.5C198.8 238.3 197.9 237.8 196.9 236.8C196.9 236.8 197.2 237.8 199.2 238.7C199.7 239.8 200.3 240.8 200.8 241.7C200.4 241.5 199.3 241.1 198.2 240.2C198.2 240.2 198.7 241.2 201 242C202 243.7 203 245.1 203.7 246C203.4 246 202.5 245.7 201.4 245.4C200.3 243.4 199.2 243.1 199.2 243.1C200.4 244.1 201 245 201.2 245.4C200.3 245.1 199.2 244.8 198.1 244.4C197.4 242.7 196.5 242.3 196.5 242.3C197.3 243.1 197.7 243.9 197.9 244.3C196.9 244 195.8 243.6 194.8 243.1C194.5 241.5 193.8 241.1 193.8 241.1C194.5 242.1 194.7 242.9 194.7 243C194.1 242.7 193.5 242.4 192.9 242.1C192.9 242.1 193.3 242.5 194.5 243.1C194.2 243.1 193.4 243.3 192.4 243.3C192.4 243.3 193.1 243.6 194.7 243.3C195.4 243.7 196.4 244.1 197.7 244.5C197.3 244.5 196.3 244.8 195 244.7C195 244.7 195.9 245.1 197.9 244.6C198.8 244.9 199.9 245.3 201.2 245.6C200.8 245.8 199.8 246.2 198.3 246.5C198.3 246.5 199.4 246.8 201.4 245.7C202.2 245.9 203.1 246.1 204 246.4C204.3 246.8 204.6 247.2 204.8 247.4H202.8C201.5 246.6 200.9 246.9 200.9 246.9C201.6 246.9 202.3 247.3 202.6 247.4C201.9 247.5 201 247.7 200.1 248.1C199.1 247.9 198.4 248.2 198.4 248.2C198.9 248.1 199.6 248.2 199.9 248.2C199.4 248.4 198.9 248.7 198.4 249.1C198.4 249.1 199 248.7 199.9 248.4C199.8 248.6 199.5 249.1 199 249.5C199 249.5 199.8 249.1 200.1 248.3C200.8 248 201.7 247.7 202.6 247.6C202.4 247.9 202 248.6 201.3 248.9C201.3 248.9 202 248.9 202.7 247.6C203.4 247.5 204.2 247.5 204.9 247.6V247.8H205.1V247.7C205.2 247.7 205.3 247.6 205.4 247.5C206.1 247.2 206.9 247.1 207.6 247.2C207.9 248.6 208.4 248.9 208.4 248.9C207.9 248.3 207.8 247.4 207.7 247.2C208.3 247.2 209 247.4 209.5 247.7C209.3 249.1 209.8 249.6 209.8 249.6C209.5 248.8 209.6 247.9 209.6 247.7C210.3 248 210.9 248.4 211.4 248.7C211.3 249.7 211.6 250.3 211.6 250.3C211.4 249.8 211.6 248.9 211.6 248.7C212.3 249.2 212.8 249.7 213 249.9C212.5 249.4 212.1 249 211.6 248.6C211.6 248.6 212.3 248.6 213 249C213 249 212.3 248.4 211.4 248.5C210.8 248 210.2 247.7 209.7 247.4C210 247.3 210.8 247 211.5 247.1C211.5 247.1 210.9 246.8 209.5 247.3C208.8 247 208.2 246.9 207.7 246.8C208 246.6 208.6 246.1 209.3 246C209.3 246 208.6 245.9 207.5 246.7C206.8 246.7 206.3 246.7 205.9 246.8C207.7 245.9 209.6 245.3 211.4 245.1C212.1 246.1 213.9 246.6 213.9 246.6C212.6 246.1 211.8 245.2 211.7 245.1C212.7 245 213.6 244.9 214.5 244.9C215 245.9 216.5 246.6 216.5 246.6C215.4 245.9 214.9 245.1 214.7 244.9C215.6 244.9 216.4 244.9 217.2 245.1C217.7 246.1 219.3 246.9 219.3 246.9C218.1 246.2 217.6 245.3 217.5 245.1L218 245.6Z" fill="#09463D"/>
<path d="M90.3 246.8C90.3 246.8 103.2 253.8 96 246.8C96 246.8 104.2 247.1 105.6 243.9C106.4 242.1 103.9 240 98.8 242.5C98.8 242.5 105.2 235.5 104.1 230C103.4 226.7 97.5 224.7 93.5 237.9C93.5 237.9 96.1 224.6 91.1 221.4C89.2 220.2 83.2 219.5 86.3 237.7C86.3 237.7 81.2 230.2 75.7 233.3C73.2 234.7 74.5 237.6 81.8 241.3C81.8 241.3 75.5 239.9 73.7 241.5C71.9 243.1 74.2 247.3 83 245.7C83 245.7 79.3 247.7 80.6 248.9C81.9 250.1 84.9 249.7 90.3 246.8Z" fill="#156A44"/>
<path d="M78 235.001C77.8 235.001 77.6 234.901 77.4 234.801C77.4 234.801 77.6 234.801 78 235.001Z" fill="#FF9023"/>
<path d="M78.1 242.6C76.2 242.6 74.9 242.7 74.9 242.7C76 242.5 77.1 242.4 78.2 242.4C77.5 241.6 76.4 241.2 76.4 241.2C77.6 241.5 78.3 242.2 78.4 242.4C79.3 242.4 80.1 242.4 80.9 242.5C80.2 241.8 79.1 241.4 79.1 241.4C80.3 241.7 81 242.4 81.1 242.6C82.1 242.7 83.1 242.9 83.9 243.2C83.4 242.2 82.4 241.5 82.4 241.5C83.5 242.1 84 243 84.1 243.2C87.3 244.2 89.3 245.7 90 246.2C89.4 244.6 88.7 243.2 87.8 242C85.4 242.1 84.6 241.3 84.6 241.3C86.1 241.8 87.3 241.8 87.7 241.8C87 240.9 86.3 240.1 85.6 239.4C83.4 240.1 82.6 239.5 82.6 239.5C84.2 239.6 85.4 239.3 85.5 239.2C84.6 238.4 83.8 237.7 82.9 237.2C81.4 238 80.6 237.7 80.6 237.7C81.7 237.6 82.5 237.2 82.7 237.1C82 236.7 81.4 236.3 80.8 236C79.2 236.8 78.5 236.6 78.5 236.6C79.8 236.4 80.6 236 80.7 236C79.5 235.4 78.5 235.1 78 234.9C79 235.2 80 235.5 80.8 235.9C80.8 235.7 80.3 234.9 79.5 234C79.5 234 80.3 234.3 80.9 236C81.6 236.3 82.2 236.6 82.8 237C82.7 236.7 82.3 236 81.5 235.1C81.5 235.1 82.3 235.4 82.9 237.1C83.8 237.6 84.6 238.2 85.3 238.9C85.2 238.4 84.9 237.6 84.3 236.6C84.3 236.6 85.1 237.1 85.5 239.1C86.4 239.9 87.2 240.8 87.8 241.7C87.8 241.2 87.8 240.1 87.3 238.7C87.3 238.7 88.1 239.5 88 241.9C89.3 243.8 89.9 245.5 90.1 246.2C90.2 245 90.3 242.8 90.2 240.4C87.9 238.4 87.5 237.3 87.5 237.3C88.4 238.6 89.8 239.6 90.2 240C90.2 238.8 90.2 237.5 90.1 236.2C87.8 234.3 87.4 233.2 87.4 233.2C88.3 234.4 89.5 235.4 90 235.8C90 234.4 89.9 233 89.8 231.7C87.5 229.8 87.1 228.7 87.1 228.7C88 229.9 89.2 230.9 89.7 231.3C89.7 229.8 89.5 228.5 89.5 227.3C87.2 225.4 86.7 224.2 86.7 224.2C87.7 225.5 89.1 226.6 89.4 226.9C89.3 224.8 89.2 223.5 89.2 223.5C89.4 224.6 89.6 225.8 89.7 227C90 226.7 91.5 225.4 92 224.3C92 224.3 91.3 225.9 89.7 227.4C89.9 228.8 90 230.2 90.1 231.5C90.5 231.2 91.9 229.9 92.4 228.8C92.4 228.8 91.7 230.4 90.2 231.8C90.2 233.2 90.3 234.6 90.4 235.9C90.7 235.6 92.2 234.3 92.7 233.2C92.7 233.2 92 234.8 90.4 236.3V240C90.7 239.7 92.2 238.4 92.7 237.3C92.7 237.3 92 239 90.4 240.4C90.4 243.2 90.3 245.3 90.2 246.2C91.9 244.7 93.4 243 94.7 241.3C94 238.9 94.7 238 94.7 238C94.6 239.6 94.8 240.8 94.9 241.2C95.6 240.2 96.3 239.3 96.9 238.4C96.1 236.4 96.5 235.5 96.5 235.5C96.5 236.9 96.9 237.9 97 238.2C97.6 237.2 98.2 236.3 98.7 235.5C97.8 234.1 97.9 233.3 97.9 233.3C98.2 234.4 98.6 235.1 98.7 235.4C99.2 234.6 99.5 233.9 99.9 233.3C98.9 231.8 99.1 231 99.1 231C99.4 232.2 99.9 233 100 233.1C100.8 231.6 101.2 230.6 101.2 230.6C100.9 231.5 100.6 232.3 100.2 233.1C100.4 233.1 101.2 232.7 102.2 232C102.2 232 101.8 232.7 100.2 233.2C99.9 234 99.5 234.7 99.1 235.4C99.4 235.4 100.2 235.2 101.2 234.7C101.2 234.7 100.7 235.3 99.1 235.5C98.5 236.5 98 237.5 97.4 238.4C97.7 238.3 98.7 237.9 99.9 237C99.9 237 99.4 237.9 97.3 238.5C96.6 239.5 95.9 240.4 95.3 241.3C95.8 241.2 96.8 240.9 98.1 240.1C98.1 240.1 97.5 241 95.1 241.5C93.9 243 92.7 244.3 91.8 245.1C92.2 245.1 93 245 94.2 244.8C95.6 243 96.7 242.8 96.7 242.8C95.4 243.6 94.7 244.5 94.4 244.8C95.3 244.7 96.5 244.5 97.6 244.3C98.5 242.7 99.4 242.5 99.4 242.5C98.5 243.2 98 243.9 97.8 244.3C98.9 244.1 99.9 243.9 101 243.6C101.6 242.1 102.3 241.8 102.3 241.8C101.5 242.7 101.2 243.5 101.2 243.6C101.9 243.4 102.5 243.2 103.1 243C103.1 243 102.7 243.3 101.3 243.8C101.6 243.9 102.4 244.2 103.4 244.3C103.4 244.3 102.7 244.5 101.2 243.9C100.4 244.2 99.4 244.4 98 244.7C98.4 244.8 99.3 245.2 100.7 245.3C100.7 245.3 99.8 245.6 97.8 244.8C96.8 245 95.7 245.2 94.4 245.3C94.8 245.5 95.7 246.1 97.1 246.6C97.1 246.6 96 246.7 94.1 245.3C93.3 245.4 92.4 245.5 91.4 245.6C91 246 90.7 246.3 90.5 246.5C90.8 246.5 91.6 246.5 92.5 246.8C93.9 246.2 94.5 246.6 94.5 246.6C93.8 246.6 93 246.8 92.7 246.9C93.4 247.1 94.2 247.4 95 247.9C96 247.9 96.7 248.2 96.7 248.2C96.3 248 95.5 248 95.3 248C95.8 248.3 96.2 248.7 96.6 249.1C96.6 249.1 96.1 248.7 95.2 248.2C95.2 248.4 95.5 248.9 95.9 249.4C95.9 249.4 95.2 248.9 95 248.1C94.3 247.7 93.5 247.3 92.6 247C92.7 247.3 93.1 248 93.7 248.5C93.7 248.5 93 248.3 92.5 247C91.8 246.8 91 246.7 90.3 246.7V246.9H90.1V246.7C90 246.7 89.9 246.5 89.8 246.4C89.1 246 88.4 245.8 87.7 245.8C87.3 247.1 86.6 247.4 86.6 247.4C87.2 246.9 87.4 246 87.5 245.8C86.9 245.8 86.2 245.8 85.6 246C85.6 247.5 85 247.9 85 247.9C85.4 247.2 85.4 246.2 85.4 246.1C84.7 246.3 84 246.6 83.5 246.9C83.5 247.9 83.1 248.5 83.1 248.5C83.4 248 83.4 247.2 83.4 247C82.6 247.4 82 247.8 81.8 248C82.3 247.6 82.9 247.2 83.3 246.9C83.3 246.9 82.6 246.9 81.8 247.1C81.8 247.1 82.6 246.6 83.4 246.8C84.1 246.4 84.7 246.2 85.3 246C85 245.8 84.3 245.5 83.6 245.5C83.6 245.5 84.2 245.3 85.5 246C86.2 245.8 86.8 245.7 87.4 245.8C87.2 245.6 86.6 245 85.9 244.8C85.9 244.8 86.6 244.8 87.6 245.8C88.3 245.8 88.8 246 89.2 246.1C87.6 244.9 85.8 244.1 84 243.6C83.2 244.5 81.4 244.8 81.4 244.8C82.8 244.4 83.6 243.7 83.8 243.6C82.8 243.3 81.9 243.2 81 243C80.3 243.9 78.7 244.4 78.7 244.4C79.9 243.9 80.5 243.2 80.7 243C79.8 242.9 79 242.8 78.2 242.8C77.6 243.7 75.9 244.3 75.9 244.3C77.2 243.7 77.8 243 78 242.8L78.1 242.6Z" fill="#09463D"/>
<path d="M47.1 41.1L154.6 0L256.1 37L236.3 116L147.6 151.7L59.6 110.6L47.1 41.1Z" fill="#E8F8FF"/>
<path d="M153.9 3.5L121.7 15.2L152.7 24.9L184.5 13L153.9 3.5Z" fill="#61AD00"/>
<path d="M147.5 26.5996L116.8 17.0996L86.7 28.3996L117.4 37.9996L147.5 26.5996Z" fill="#61AD00"/>
<path d="M186.4 36.4992L218.2 24.5992L189.2 14.6992L157.5 26.2992L186.4 36.4992Z" fill="#61AD00"/>
<path d="M223 26.4004L190.9 38.2004L218.5 48.6004L250.2 37.0004L223 26.4004Z" fill="#61AD00"/>
<path d="M81.7 30.1992L53.2 41.2992L83.9 50.6992L112.7 39.8992L81.7 30.1992Z" fill="#61AD00"/>
<path d="M87.3 100.601L59.8 90.3008L63.4 110.401L89.6 121.101L87.3 100.601Z" fill="#1B365D"/>
<path d="M117.5 113.2L91.6 102.4L93.6 122.9L118.3 134.2L117.5 113.2Z" fill="#1B365D"/>
<path d="M84.7 77.0004L55.7 66.9004L59.2 86.9004L87 97.4004L84.7 77.0004Z" fill="#1B365D"/>
<path d="M82.1 53.2996L51.5 43.5996L55.1 63.6996L84.3 73.7996L82.1 53.2996Z" fill="#1B365D"/>
<path d="M146.1 126.5L121.8 115.1L122.4 136L145.5 147.7L146.1 126.5Z" fill="#1B365D"/>
<path d="M206.2 124.999L233.1 114.799L238.5 92.1992L210.2 102.899L206.2 124.999Z" fill="#C5DC6F"/>
<path d="M177 136.799L202.1 126.799L205.9 104.699L179.4 114.899L177 136.799Z" fill="#C5DC6F"/>
<path d="M210.9 99.4008L239.5 88.4008L245.1 65.8008L215 77.2008L210.9 99.4008Z" fill="#C5DC6F"/>
<path d="M252 39.5996L220.1 51.3996L215.7 73.5996L246.1 62.2996L252 39.5996Z" fill="#C5DC6F"/>
<path d="M149.1 147.9L172.8 138.3L175 116.6L149.9 126.6L149.1 147.9Z" fill="#C5DC6F"/>
<path d="M149.1 102.6L123.5 112.7L148.3 123.9L173.4 114L149.1 102.6Z" fill="#61AD00"/>
<path d="M180 90.5996L153.2 101.1L177.6 112.3L204.2 102L180 90.5996Z" fill="#61AD00"/>
<path d="M118.9 90L93.5 100.1L119.5 110.8L144.8 100.9L118.9 90Z" fill="#61AD00"/>
<path d="M215.5 51.5008L188.4 40.8008L185.6 62.6008L211.4 73.6008L215.5 51.5008Z" fill="#1B365D"/>
<path d="M183.6 39.0996L154.7 29.0996L153.5 50.4996L181 60.9996L183.6 39.0996Z" fill="#1B365D"/>
<path d="M210.8 77.0996L185.2 66.0996L182.5 87.7996L206.8 99.2996L210.8 77.0996Z" fill="#1B365D"/>
<path d="M115 42.3008L86.6 53.3008L88.7 73.8008L115.7 63.1008L115 42.3008Z" fill="#C5DC6F"/>
<path d="M149.9 29.1992L120 40.3992L120.4 61.5992L149 50.4992L149.9 29.1992Z" fill="#C5DC6F"/>
<path d="M91.1 97.5004L116.5 87.3004L115.8 66.4004L89 77.0004L91.1 97.5004Z" fill="#C5DC6F"/>
<path d="M180.4 66.0996L152.2 76.9996L151.2 98.3996L178 87.7996L180.4 66.0996Z" fill="#C5DC6F"/>
<path d="M121 87.3004L147.1 98.3004L147.9 77.0004L120.5 66.4004L121 87.3004Z" fill="#1B365D"/>
<path d="M151.3 53L122.5 64L150.3 74.5L178.7 63.6L151.3 53Z" fill="#61AD00"/>
<g opacity="0.2" style="mix-blend-mode:multiply">
<path d="M226.5 139.801L228.4 185.901L83.7 186.001L81.8 143.401L226.5 139.801Z" fill="#231F20"/>
</g>
<path d="M222.5 135.801L224.4 181.901L79.7 182.001L77.8 139.401L222.5 135.801Z" fill="#4291CE"/>
<path d="M216.8 141.801L218.3 175.801L85.2 176.401L83.8 144.601L216.8 141.801Z" fill="#0659A6"/>
<path d="M92.2 164.9H93.2C93.2 164.8 97.8 152.9 97.8 152.9H99.3L103.8 164.8H104.8V166.1H101V165L102 164.8L101.1 162.4H95.8L94.9 164.8L95.9 165V166.1H92.1V165L92.2 164.9ZM96.4 160.8H100.6L98.6 155.1L96.5 160.8H96.4Z" fill="white"/>
<path d="M116.9 159.601C116.9 161.501 116.4 163.101 115.2 164.401C114.1 165.701 112.7 166.301 110.9 166.301C109.1 166.301 107.8 165.701 106.8 164.401C105.7 163.101 105.2 161.501 105.2 159.601V159.401C105.2 157.501 105.7 155.901 106.8 154.601C107.9 153.301 109.2 152.701 110.9 152.701C112.6 152.701 114.1 153.301 115.2 154.601C116.3 155.901 116.9 157.501 116.9 159.401V159.601ZM115.1 159.401C115.1 157.901 114.7 156.601 114 155.701C113.3 154.701 112.3 154.201 111 154.201C109.7 154.201 108.8 154.701 108.1 155.701C107.4 156.701 107.1 157.901 107.1 159.401V159.601C107.1 161.101 107.4 162.401 108.1 163.401C108.8 164.401 109.8 164.901 111 164.901C112.2 164.901 113.3 164.401 114.1 163.501C114.9 162.601 115.2 161.301 115.2 159.701V159.501L115.1 159.401Z" fill="white"/>
<path d="M124.3 152.9C125.7 152.9 126.8 153.3 127.6 154C128.4 154.7 128.8 155.7 128.8 156.9C128.8 158.1 128.4 159 127.6 159.8C126.8 160.5 125.7 160.9 124.3 160.9H121.5V164.8L123 165.1V166.2H118.3V165.1L119.8 164.8V154.4L118.3 154.1V153H124.3V152.9ZM121.5 159.4H124.3C125.2 159.4 125.9 159.2 126.3 158.7C126.7 158.2 127 157.6 127 156.9C127 156.2 126.8 155.6 126.3 155.1C125.9 154.6 125.2 154.4 124.3 154.4H121.5V159.5V159.4Z" fill="white"/>
<path d="M139.5 156.801H138.2L137.9 154.901C137.6 154.701 137.3 154.501 136.8 154.301C136.3 154.101 135.8 154.101 135.2 154.101C134.3 154.101 133.5 154.301 133 154.701C132.5 155.101 132.2 155.601 132.2 156.301C132.2 157.001 132.5 157.401 133 157.701C133.5 158.001 134.3 158.401 135.5 158.701C136.9 159.001 137.9 159.501 138.7 160.201C139.4 160.901 139.8 161.701 139.8 162.701C139.8 163.701 139.4 164.601 138.5 165.301C137.6 165.901 136.5 166.301 135.1 166.301C133.7 166.301 133.2 166.101 132.4 165.801C131.6 165.501 131 165.001 130.5 164.501V162.001H131.8L132.1 163.901C132.4 164.201 132.9 164.401 133.3 164.601C133.8 164.801 134.3 164.901 135 164.901C135.7 164.901 136.6 164.701 137.1 164.301C137.6 163.901 137.9 163.401 137.9 162.801C137.9 162.201 137.7 161.701 137.2 161.301C136.7 160.901 135.9 160.601 134.8 160.301C133.4 160.001 132.3 159.501 131.5 158.801C130.7 158.201 130.3 157.301 130.3 156.401C130.3 155.501 130.7 154.501 131.6 153.801C132.5 153.101 133.6 152.801 135 152.801C136.4 152.801 136.8 153.001 137.5 153.301C138.3 153.601 138.9 154.001 139.3 154.501V157.001L139.5 156.801Z" fill="white"/>
<path d="M145.7 164.9H146.7C146.7 164.8 151.3 152.9 151.3 152.9H152.8L157.3 164.8H158.3V166.1H154.5V165L155.5 164.8L154.6 162.4H149.3L148.4 164.8L149.4 165V166.1H145.6V165L145.7 164.9ZM150 160.8H154.2L152.2 155.1L150.1 160.8H150Z" fill="white"/>
<path d="M165.2 152.9C166.6 152.9 167.7 153.2 168.5 153.9C169.3 154.6 169.6 155.4 169.6 156.6C169.6 157.8 169.4 157.8 169.1 158.3C168.8 158.8 168.2 159.2 167.6 159.5C168.3 159.7 168.8 160.1 169.2 160.6C169.5 161.1 169.7 161.8 169.7 162.6V163.7C169.7 164.1 169.7 164.4 169.9 164.6C170 164.8 170.2 164.9 170.4 164.9H170.8V166.1H169.8C169.1 166.1 168.6 165.9 168.3 165.4C168 164.9 167.9 164.3 167.9 163.6V162.6C167.9 161.9 167.7 161.3 167.3 160.9C166.9 160.5 166.3 160.2 165.6 160.2H162.7V164.7L164.2 165V166.1H159.5V165L161 164.7V154.3L159.5 154V152.9H165.3H165.2ZM162.7 158.8H165C166 158.8 166.7 158.6 167.2 158.2C167.7 157.8 167.9 157.3 167.9 156.5C167.9 155.7 167.7 155.3 167.2 154.9C166.8 154.5 166.1 154.3 165.2 154.3H162.7V158.8Z" fill="white"/>
<path d="M172 166.1V165L173.5 164.7V154.3L172 154V152.9H182.1V156.1H180.6V154.3H175.3V158.6H180.3V160H175.3V164.7H180.6V162.9H182.3V166.1H172Z" fill="white"/>
<path d="M196.7 152.9V154L195.2 154.3V166.1H193.4L187.1 155.9V164.7L188.6 165V166.1H183.9V165L185.4 164.7V154.3L183.9 154V152.9H187.2L193.5 163.1V154.3L192 154V152.9H196.7Z" fill="white"/>
<path d="M197 164.9H198C198 164.8 202.6 152.9 202.6 152.9H204.1L208.6 164.8H209.6V166.1H205.8V165L206.8 164.8L205.9 162.4H200.6L199.7 164.8L200.7 165V166.1H196.9V165L197 164.9ZM201.2 160.8H205.4L203.4 155.1L201.3 160.8H201.2Z" fill="white"/>
</g>
<defs>
<clipPath id="clip0_4219_13541">
<rect width="314.4" height="251.53" fill="white"/>
</clipPath>
</defs>
</svg>
