<svg width="82" height="87" viewBox="0 0 82 87" fill="none" xmlns="http://www.w3.org/2000/svg">
<circle cx="41" cy="45" r="33" fill="white" fill-opacity="0.7"/>
<path d="M23.0134 54.7489C22.7913 54.9287 21.0616 56.0242 23.3149 57.3159C25.5683 58.6076 35.1846 59.6377 42.7856 59.6377C50.3866 59.6377 59.0985 58.0026 61.5898 56.1387C61.5898 56.1387 63.3671 55.1249 61.5898 53.588C59.8125 52.051 58.067 50.3996 57.7814 50.089C57.4025 49.7545 57.127 49.313 56.9888 48.8191C56.8507 48.3251 56.8559 47.8003 57.0038 47.3094C57.4005 44.6442 57.8131 26.5279 42.0557 25.8738C39.041 25.7306 36.0546 26.5279 33.4868 28.1614C30.9189 29.795 28.8892 32.1889 27.6629 35.0301C26.5419 37.8582 26.0433 40.9071 26.203 43.9575C26.3274 45.0706 26.5668 46.1669 26.9171 47.2276C27.1491 47.7076 27.2698 48.2365 27.2698 48.7727C27.2698 49.309 27.1491 49.8379 26.9171 50.3179C25.7174 51.8866 24.4131 53.3672 23.0134 54.7489Z" fill="#48C7F4"/>
<path d="M41.5479 31.3516C46.0797 31.3516 49.7627 35.1385 49.7627 39.8213C49.7627 44.5041 46.0797 48.291 41.5479 48.291C37.016 48.291 33.333 44.5041 33.333 39.8213C33.333 35.1384 37.016 31.3516 41.5479 31.3516Z" fill="white" stroke="white" stroke-width="0.359259"/>
<path d="M41.5476 36.9434C42.9157 36.9434 44.0339 38.0878 44.0339 39.5107C44.0338 40.9336 42.9156 42.0781 41.5476 42.0781C40.1796 42.0781 39.0614 40.9336 39.0613 39.5107C39.0613 38.0878 40.1795 36.9434 41.5476 36.9434Z" fill="black" stroke="white" stroke-width="0.359259"/>
</svg>
