<svg width="71" height="71" viewBox="0 0 71 71" fill="none" xmlns="http://www.w3.org/2000/svg">
<g filter="url(#filter0_d_4149_10594)">
<path d="M35.1052 61.0527C51.1215 61.0527 64.1052 48.069 64.1052 32.0527C64.1052 16.0365 51.1215 3.05273 35.1052 3.05273C19.089 3.05273 6.10522 16.0365 6.10522 32.0527C6.10522 48.069 19.089 61.0527 35.1052 61.0527Z" fill="#E3BF71"/>
</g>
<path d="M35.1051 57.2376C49.014 57.2376 60.2893 45.9622 60.2893 32.0534C60.2893 18.1445 49.014 6.86914 35.1051 6.86914C21.1963 6.86914 9.9209 18.1445 9.9209 32.0534C9.9209 45.9622 21.1963 57.2376 35.1051 57.2376Z" fill="#EEE8B8"/>
<g filter="url(#filter1_d_4149_10594)">
<path d="M54.229 12.2109L59.5264 17.3468L40.9988 39.6846L30.5264 30.6203L35.2477 25.4844L40.5014 32.678L54.229 12.2109Z" fill="#80B263"/>
</g>
<g clip-path="url(#clip0_4149_10594)">
<path d="M25.6626 23.5153C27.6043 23.5153 29.1783 21.9541 29.1783 20.0282C29.1783 18.1023 27.6043 16.541 25.6626 16.541C23.721 16.541 22.147 18.1023 22.147 20.0282C22.147 21.9541 23.721 23.5153 25.6626 23.5153Z" fill="#D39519"/>
<path d="M26.415 12.4189L26.723 12.1953L28.5938 17.3417L28.0832 17.9301C28.0832 17.9301 27.5337 17.6359 27.4596 17.4516C27.3856 17.2672 26.5086 15.6119 26.5086 15.6119L26.415 12.4228V12.4189Z" fill="#B8883F"/>
<path d="M33.1384 17.4629L33.5749 17.6355L29.8722 21.0952L31.1428 25.9317L30.3945 25.5748C30.3945 25.5748 28.4807 22.6799 28.4807 22.4955V20.1773C28.4807 20.1773 29.5798 18.5926 29.689 18.522C29.7981 18.4514 33.1345 17.4668 33.1345 17.4668L33.1384 17.4629Z" fill="#B8883F"/>
<path d="M26.7306 23.6736L21.0361 25.7957L21.0556 25.4034C21.0556 25.4034 25.23 22.791 25.343 22.791C25.4561 22.791 26.7345 23.6736 26.7345 23.6736H26.7306Z" fill="#B8883F"/>
<path d="M22.5017 21.4061L18.3157 16.9618L18.6859 16.7461L22.2679 19.1075L22.8174 20.4333L22.5017 21.4061Z" fill="#B8883F"/>
<path d="M27.9508 21.6007L24.8911 21.8517L26.2982 20.9966L28.3795 20.4082L27.9508 21.6007Z" fill="#B8883F"/>
<path d="M26.2474 18.8867C26.2474 18.8867 26.2357 19.5575 25.1288 20.6362C24.7156 21.0402 24.2713 21.5619 24.2713 21.5619V23.178L23.7295 23.1859L23.4372 22.3033L23.406 20.9971C23.406 20.9971 23.9595 20.1459 24.0569 20.0831C24.1544 20.0203 25.1599 19.1691 25.1599 19.1691L26.2435 18.8906L26.2474 18.8867Z" fill="#B8883F"/>
<path d="M24.0568 18.9295C24.0568 18.9295 24.5284 17.9528 25.5028 17.6547C26.1771 17.4468 26.7345 17.4703 27.2061 17.9488C28.122 18.8707 26.754 20.4122 26.754 20.4122C26.754 20.4122 27.4945 19.7925 27.5101 19.7258C27.5257 19.6591 27.9272 18.8314 27.9272 18.7608C27.9272 18.6902 27.7362 17.4978 27.7362 17.4978C27.7362 17.4978 26.7618 16.8152 26.7072 16.8152C26.6526 16.8152 25.8692 16.6936 25.6782 16.7642C25.4872 16.8348 24.8753 16.9564 24.8052 16.976C24.735 16.9957 24.4232 17.3448 24.3686 17.3448C24.3141 17.3448 23.6554 18.1528 23.6554 18.1528L23.3591 18.3803L24.049 18.9413L24.0568 18.9295Z" fill="#B8883F"/>
<path d="M32.6356 18.0155L29.1979 20.9222L30.7647 25.7626L25.9005 23.5111L21.0362 25.4802L22.2328 20.4201L18.6431 16.7486L23.862 16.8466L26.4189 12.4023L28.0754 17.1408L33.1657 17.4585L32.6356 18.0116V18.0155Z" fill="#EAC96D"/>
</g>
<g clip-path="url(#clip1_4149_10594)">
<path d="M21.0838 41.8318C23.0254 41.8318 24.5995 40.2705 24.5995 38.3446C24.5995 36.4187 23.0254 34.8574 21.0838 34.8574C19.1421 34.8574 17.5681 36.4187 17.5681 38.3446C17.5681 40.2705 19.1421 41.8318 21.0838 41.8318Z" fill="#D39519"/>
<path d="M21.8362 30.7353L22.1441 30.5117L24.015 35.6581L23.5044 36.2465C23.5044 36.2465 22.9548 35.9523 22.8807 35.768C22.8067 35.5836 21.9297 33.9283 21.9297 33.9283L21.8362 30.7392V30.7353Z" fill="#B8883F"/>
<path d="M28.5595 35.7793L28.9961 35.9519L25.2933 39.4116L26.5639 44.2481L25.8156 43.8912C25.8156 43.8912 23.9019 40.9963 23.9019 40.812V38.4937C23.9019 38.4937 25.001 36.909 25.1101 36.8384C25.2193 36.7678 28.5556 35.7832 28.5556 35.7832L28.5595 35.7793Z" fill="#B8883F"/>
<path d="M22.1517 41.99L16.4573 44.1121L16.4768 43.7199C16.4768 43.7199 20.6511 41.1074 20.7642 41.1074C20.8772 41.1074 22.1556 41.99 22.1556 41.99H22.1517Z" fill="#B8883F"/>
<path d="M17.9229 39.7225L13.7368 35.2782L14.1071 35.0625L17.689 37.4239L18.2386 38.7497L17.9229 39.7225Z" fill="#B8883F"/>
<path d="M23.3719 39.9171L20.3123 40.1681L21.7193 39.313L23.8006 38.7246L23.3719 39.9171Z" fill="#B8883F"/>
<path d="M21.6685 37.2031C21.6685 37.2031 21.6568 37.8739 20.5499 38.9526C20.1368 39.3566 19.6924 39.8783 19.6924 39.8783V41.4944L19.1507 41.5023L18.8583 40.6197L18.8271 39.3135C18.8271 39.3135 19.3806 38.4623 19.4781 38.3995C19.5755 38.3367 20.5811 37.4856 20.5811 37.4856L21.6646 37.207L21.6685 37.2031Z" fill="#B8883F"/>
<path d="M19.478 37.2459C19.478 37.2459 19.9496 36.2692 20.924 35.9711C21.5983 35.7632 22.1556 35.7867 22.6272 36.2653C23.5432 37.1871 22.1751 38.7286 22.1751 38.7286C22.1751 38.7286 22.9157 38.1089 22.9313 38.0422C22.9469 37.9755 23.3483 37.1478 23.3483 37.0772C23.3483 37.0066 23.1573 35.8142 23.1573 35.8142C23.1573 35.8142 22.1829 35.1316 22.1283 35.1316C22.0738 35.1316 21.2904 35.01 21.0994 35.0806C20.9084 35.1512 20.2965 35.2728 20.2263 35.2925C20.1561 35.3121 19.8443 35.6612 19.7898 35.6612C19.7352 35.6612 19.0765 36.4692 19.0765 36.4692L18.7803 36.6967L19.4702 37.2577L19.478 37.2459Z" fill="#B8883F"/>
<path d="M28.0567 36.3319L24.619 39.2386L26.1859 44.079L21.3216 41.8275L16.4574 43.7966L17.6539 38.7365L14.0642 35.065L19.2831 35.163L21.84 30.7188L23.4965 35.4572L28.5868 35.7749L28.0567 36.328V36.3319Z" fill="#EAC96D"/>
</g>
<g clip-path="url(#clip2_4149_10594)">
<path d="M34.8206 52.5153C36.7623 52.5153 38.3363 50.9541 38.3363 49.0282C38.3363 47.1023 36.7623 45.541 34.8206 45.541C32.879 45.541 31.3049 47.1023 31.3049 49.0282C31.3049 50.9541 32.879 52.5153 34.8206 52.5153Z" fill="#D39519"/>
<path d="M35.573 41.4189L35.8809 41.1953L37.7518 46.3417L37.2412 46.9301C37.2412 46.9301 36.6916 46.6359 36.6176 46.4516C36.5435 46.2672 35.6665 44.6119 35.6665 44.6119L35.573 41.4228V41.4189Z" fill="#B8883F"/>
<path d="M42.2964 46.4629L42.7329 46.6355L39.0301 50.0952L40.3008 54.9317L39.5524 54.5748C39.5524 54.5748 37.6387 51.6799 37.6387 51.4955V49.1773C37.6387 49.1773 38.7378 47.5926 38.8469 47.522C38.9561 47.4514 42.2925 46.4668 42.2925 46.4668L42.2964 46.4629Z" fill="#B8883F"/>
<path d="M35.8885 52.6736L30.1941 54.7957L30.2136 54.4034C30.2136 54.4034 34.388 51.791 34.501 51.791C34.614 51.791 35.8924 52.6736 35.8924 52.6736H35.8885Z" fill="#B8883F"/>
<path d="M31.6597 50.4061L27.4736 45.9618L27.8439 45.7461L31.4258 48.1075L31.9754 49.4333L31.6597 50.4061Z" fill="#B8883F"/>
<path d="M37.1087 50.6007L34.0491 50.8517L35.4561 49.9966L37.5375 49.4082L37.1087 50.6007Z" fill="#B8883F"/>
<path d="M35.4053 47.8867C35.4053 47.8867 35.3937 48.5575 34.2867 49.6362C33.8736 50.0402 33.4292 50.5619 33.4292 50.5619V52.178L32.8875 52.1859L32.5951 51.3033L32.564 49.9971C32.564 49.9971 33.1174 49.1459 33.2149 49.0831C33.3123 49.0203 34.3179 48.1691 34.3179 48.1691L35.4014 47.8906L35.4053 47.8867Z" fill="#B8883F"/>
<path d="M33.2148 47.9295C33.2148 47.9295 33.6864 46.9528 34.6608 46.6547C35.3351 46.4468 35.8924 46.4703 36.3641 46.9488C37.28 47.8707 35.9119 49.4122 35.9119 49.4122C35.9119 49.4122 36.6525 48.7925 36.6681 48.7258C36.6837 48.6591 37.0851 47.8314 37.0851 47.7608C37.0851 47.6902 36.8941 46.4978 36.8941 46.4978C36.8941 46.4978 35.9197 45.8152 35.8652 45.8152C35.8106 45.8152 35.0272 45.6936 34.8362 45.7642C34.6452 45.8348 34.0333 45.9564 33.9631 45.976C33.893 45.9957 33.5811 46.3448 33.5266 46.3448C33.472 46.3448 32.8133 47.1528 32.8133 47.1528L32.5171 47.3803L33.207 47.9413L33.2148 47.9295Z" fill="#B8883F"/>
<path d="M41.7936 47.0155L38.3558 49.9222L39.9227 54.7626L35.0584 52.5111L30.1942 54.4802L31.3908 49.4201L27.801 45.7486L33.02 45.8466L35.5768 41.4023L37.2333 46.1408L42.3236 46.4585L41.7936 47.0116V47.0155Z" fill="#EAC96D"/>
</g>
<defs>
<filter id="filter0_d_4149_10594" x="-3.86238e-05" y="0.000102758" width="70.2105" height="70.2105" filterUnits="userSpaceOnUse" color-interpolation-filters="sRGB">
<feFlood flood-opacity="0" result="BackgroundImageFix"/>
<feColorMatrix in="SourceAlpha" type="matrix" values="0 0 0 0 0 0 0 0 0 0 0 0 0 0 0 0 0 0 127 0" result="hardAlpha"/>
<feOffset dy="3.05263"/>
<feGaussianBlur stdDeviation="3.05263"/>
<feComposite in2="hardAlpha" operator="out"/>
<feColorMatrix type="matrix" values="0 0 0 0 0 0 0 0 0 0 0 0 0 0 0 0 0 0 0.25 0"/>
<feBlend mode="normal" in2="BackgroundImageFix" result="effect1_dropShadow_4149_10594"/>
<feBlend mode="normal" in="SourceGraphic" in2="effect1_dropShadow_4149_10594" result="shape"/>
</filter>
<filter id="filter1_d_4149_10594" x="30.5264" y="12.2109" width="29" height="29.0009" filterUnits="userSpaceOnUse" color-interpolation-filters="sRGB">
<feFlood flood-opacity="0" result="BackgroundImageFix"/>
<feColorMatrix in="SourceAlpha" type="matrix" values="0 0 0 0 0 0 0 0 0 0 0 0 0 0 0 0 0 0 127 0" result="hardAlpha"/>
<feOffset dy="1.52632"/>
<feComposite in2="hardAlpha" operator="out"/>
<feColorMatrix type="matrix" values="0 0 0 0 0.160784 0 0 0 0 0.258824 0 0 0 0 0.168627 0 0 0 1 0"/>
<feBlend mode="normal" in2="BackgroundImageFix" result="effect1_dropShadow_4149_10594"/>
<feBlend mode="normal" in="SourceGraphic" in2="effect1_dropShadow_4149_10594" result="shape"/>
</filter>
<clipPath id="clip0_4149_10594">
<rect width="15.2632" height="13.7368" fill="white" transform="translate(18.3157 12.2109)"/>
</clipPath>
<clipPath id="clip1_4149_10594">
<rect width="15.2632" height="13.7368" fill="white" transform="translate(13.7368 30.5273)"/>
</clipPath>
<clipPath id="clip2_4149_10594">
<rect width="15.2632" height="13.7368" fill="white" transform="translate(27.4736 41.2109)"/>
</clipPath>
</defs>
</svg>
