<?xml version="1.0" encoding="UTF-8"?>
<svg id="Layer_1" xmlns="http://www.w3.org/2000/svg" xmlns:xlink="http://www.w3.org/1999/xlink" version="1.1" viewBox="0 0 334 348">
  <!-- Generator: Adobe Illustrator 30.3.0, SVG Export Plug-In . SVG Version: 2.1.3 Build 182)  -->
  <defs>
    <style>
      .st0 {
        mask: url(#mask);
      }

      .st1 {
        fill: #a2b46e;
      }

      .st2 {
        mask: url(#mask-2);
      }

      .st3 {
        mask: url(#mask-1);
      }

      .st4 {
        fill: #fff;
      }

      .st5 {
        fill: #ede4ae;
      }

      .st6 {
        fill: #afd2db;
      }

      .st7 {
        fill: #ecf2f4;
      }

      .st8 {
        fill: #7ca0b7;
      }

      .st9 {
        fill: #743a5f;
      }

      .st10 {
        fill: #788750;
      }

      .st11 {
        fill: #985c85;
      }

      .st12 {
        fill: #313c3f;
      }

      .st13 {
        fill: #51798f;
      }

      .st14 {
        fill: #32505b;
      }
    </style>
    <mask id="mask" x="156.7" y="60" width="58.2" height="38" maskUnits="userSpaceOnUse">
      <g id="mask0_4198_12695">
        <path class="st4" d="M169.7,60l-13,15.4,9,10.4c11.7-.7,23.5,1.7,37,12.2l8.6-8.2,3.6-16.6-15.7-10.1-29.4-3.1h-.1Z"/>
      </g>
    </mask>
    <mask id="mask-1" x="165.9" y="104.09" width="34.7" height="34.03" maskUnits="userSpaceOnUse">
      <g id="mask1_4198_12695">
        <path class="st4" d="M165.9,117.3c.3,2.7.8,5.4,1.6,8,.4,1.5,1,3.1,2,4.3.8,1,1.9,1.8,3.1,2.4,5,2.4,11.3.8,15.5-2.9,4.2-3.7,6.5-9,7.8-14.4.3-1.4.6-2.8.3-4.2-9.1,5.3-19.8,7.6-30.2,6.6"/>
      </g>
    </mask>
    <mask id="mask-2" x="219.63" y="74.9" width="24.97" height="27.66" maskUnits="userSpaceOnUse">
      <g id="mask2_4198_12695">
        <path class="st4" d="M229,99.7c1.3-2.3,2-5,3.9-6.8s1.7-7.8,3.7-6.2c1.5,1.2,1.8,1.7,3.5,2.3s3.5,1.4,4.1,1.6c.8.3.2,1.7,0,2.6-1.2,3.6-3.9,6.7-7.3,8.4-1.7.8-3.7,1.3-5.5.7-1.2-.4-2.2-1.4-3.1-2.4"/>
      </g>
    </mask>
  </defs>
  <path class="st9" d="M239,205c-4.9,10-4.8,22.3.2,32.2,1.5,2.9,3.4,5.6,6.1,7.4,2.7,1.8,6.3,2.4,9.2.9,2.8-1.4,4.5-4.5,5.2-7.6,1.4-6.6-.9-13.7-5.3-18.8-4.4-5.1-10.7-8.3-17.2-10"/>
  <path class="st11" d="M257.1,173c13.8,9.5,25.5,21.9,34.2,36.2-5.9-.8-12.4.5-19.4,4.1-7,3.6-14.1,13.4-16,21.1-5.5-2.6-14.5-6.4-27.6-11.6-13.1-5.2,6.4-13.7,5.8-16-.3-1.2-.2-2.4-.1-3.6,1.5-13.1,10.4-25.2,22.6-30.3"/>
  <path class="st7" d="M59.9,251.5c21.7,1,35.4-6.7,41.8-10.5,6.4-3.8,1.3-32.8,1.3-32.8-7.2-9.5-14.2-14.5-22.5-7.7,0,0-4.9-9.5-15.8-16.8-.6-15-8.9-21.7-8.9-21.7,1.7-13.1-9.6-22.6-19.1-24.5,4.5,11.2,3.5,21.7,3.5,21.7-8.8-6.8-15,1.9-15.3,10.2-5.4,2.6-6.4,8-6.4,8-4.1-1-13.7,14,1.9,23,.6,5.7,10.5,12.8,10.5,12.8,5.4,28.7,29,38.6,29,38.6v-.3Z"/>
  <path class="st11" d="M80,200.5s14,1.3,24.5,16.3,11.2-32.5,11.2-32.5l-4.5-20.1s-7.7,16.3-31.2,36.3Z"/>
  <path class="st1" d="M104.6,220.9s-22.6,42.4-22.6,70.1c13.7-4.8,94.7-16.3,158.4,27.7,1.9,5.1,1.9,9.6,1.9,9.6l7.3-2.9s5.4-24.5,1.6-40.8c10.5-12.4.3-43.7.3-43.7"/>
  <path class="st7" d="M312.7,241.1c-.6-5.4-3.6-10.3-6.8-14.7-3.6-5-7.6-9.8-11.8-14.2-.9-1-1.9-1.9-2.9-2.8-5.9-.8-12.3.5-19.4,4.1-7,3.5-14,13.3-15.9,21,.9.6,1.8,1,2.8,1.3l.4.4c-12.7,4.1-24.2,12.1-32.4,22.7-2.1,2.7-4,5.6-5.1,8.9-1.1,3.3-1.2,6.8-.9,10.3.7,8.5,3.9,16.8,9.6,23.1,5.7,6.3,14.1,10.3,22.6,10,5.1-.2,10.3-1.9,13.6-5.7,3.4-3.8,4.5-9.7,1.8-14.1,17.3-3.5,31.2-17.1,39.6-32.6,3-5.4,5.5-11.5,4.8-17.7Z"/>
  <path class="st1" d="M233.6,155.1c-1.8-7,7.5-28.1,7.5-28.1l-97.3-8.3s3.1,17.8,1.5,24.5c-22.6,8.8-36.6,19.6-36.6,19.6-15.5,29.7-8.6,58.7-7,66.9,86,4.9,146.9,11,146.9,11-30.9-26.1,11.5-65.2,11.5-65.2h.1c2.3-2,5-3.8,8.4-4.9-13.4-9.6-35.1-15.7-35.1-15.7l.1.2Z"/>
  <path class="st10" d="M275.6,188.9c3.2-9.9-6.9-18-6.9-18-3.4,1.1-6.2,2.9-8.4,4.9,5.4,2.9,15.3,13.1,15.3,13.1Z"/>
  <path class="st6" d="M166,137.8s-1.3,17.8,1.8,30.5c3.9-12.7,17.3-26.3,17.3-26.3l-19.1-4.1v-.1Z"/>
  <path class="st8" d="M162.4,71.6c-12.8-1.7-26.4,1.9-36,10.4-9.6,8.6-14.7,22.3-12,34.9.2.7.4,1.6,1.1,1.8.5.2,1.1,0,1.6-.3,4.5-2.3,9-5,14-5.9,3.6-.6,7.4-.3,10.9-1.5,4.1-1.5,7-5,9.7-8.4,3.6-4.6,7.2-9.4,9.6-14.8,2.5-5.3,3.9-11.3,3-17.2"/>
  <path class="st13" d="M145.8,96c-1-1-2.5-1.3-3.9-1.4-7.5-.4-14.7,4.1-19.3,10.1-3.2,4.1-5.4,8.9-7.3,13.8.1,0,.2.2.3.2.5.2,1.1,0,1.6-.3,4.5-2.3,9-5,14-5.9,3.6-.6,7.4-.3,10.9-1.5.2,0,.4-.2.6-.3.5-.6,1.1-1.2,1.5-1.8,2.1-2.9,3.3-6.5,2.8-10-.2-1-.5-2.1-1.2-2.8v-.1Z"/>
  <path class="st14" d="M139.1,73.8c-.3,4.9-.5,9.6-.7,14.5-2.7-4.3-2.4-10.4.7-14.5Z"/>
  <path class="st14" d="M128.1,80.3c-2,10.8-2.5,22.6,4,32.1-9-7.8-8.8-22-4-32.1Z"/>
  <path class="st14" d="M115.8,98.9c1.5,5.8,3.6,11.2,6.6,16.4-5.2-3.4-8-10.4-6.6-16.4Z"/>
  <path class="st7" d="M172.2,56.7c-9,7.9-16.4,17.6-21.7,28.3-5.3-1.3-11.2.2-15.1,4-3.9,3.8-5.7,9.6-4.6,15,1.5-2.2,3.6-4,6.1-5.1-4.5,5.6-5.9,13.5-3.6,20.2.9-1.8,2.4-3.2,4.3-4-1.4,5.8.1,12.3,4.1,16.9,1-2.5,2-5.1,3-7.6,4.6,9.5,13.2,17,23.3,20.4,7.2,2.4,14.9,2.7,22.5,2.8,9.4.1,19,0,28-2.8,9-2.7,17.5-8.2,22-16.5,4.7-8.7,4.3-19.2,3.7-29.1-.2-4.3-.5-8.8-2.2-12.8-1.6-3.8-4.4-7.1-7.6-9.8-5.1-4.5-11.1-8-17.1-11.4-7-4-14.1-8.1-21.9-10.2s-16.5-2.2-23.6,1.6"/>
  <path class="st7" d="M226.2,74.9c-5,4.1-7,11.4-5,17.4.5,1.5,1.4,3,2.9,3.5,1.3.4,2.8,0,3.9-1,1.1-.9,1.8-2.1,2.5-3.3,1.9,1.8,4,3.4,6.3,4.6,1,.5,2.2,1,3.2.6,1.2-.5,1.7-1.9,1.9-3.1.6-4.1-.8-8.5-3.7-11.5"/>
  <path class="st8" d="M226.2,74.9c-3.8,3.7-5.6,9.2-4.8,14.3.9,6.6,4.9,8.1,8.2,1.8l.6-1.1c1.8,1.9,3.9,3.6,6.1,4.9,1,.6,1.9,1.1,2.7,1.1,2,0,2.2-3,2.3-4.6,0-3.4-1.1-6.7-3.2-9.3,2.6,2.3,4.3,5.8,4.5,9.3.4,5.2-2.3,8.1-7.1,5.1-2.1-1.1-4-2.6-5.7-4.2l1.5-.2c-1.3,2.5-3.7,5.6-7.2,4.8-3.2-.9-4.1-4.6-4.4-7.4-.5-5.5,1.9-11.4,6.4-14.5h.1Z"/>
  <path class="st7" d="M168.7,55.8c-1.6,2.6-3.7,5-6.1,7.1-.8.7-1.7,1.4-2.7,1.8-.9.3-1.9.4-2.9.4-2.6.2-5.3.3-7.9.5-1.4,0-2.8.2-4.1.7-1.9.8-3.1,2.8-2.8,4.6s1.9,3.5,4,3.9c-1,1.9-1.6,4-1.8,6.1-.1,1.7.2,3.7,2,4.3.9.3,1.8.2,2.7,0,5.8-1.1,10.3-6.1,10.2-11.2,0-1.1-.2-2.2.3-3.2.3-.7.9-1.2,1.5-1.8,1.9-1.7,3.6-3.6,5.2-5.5,2-2.4,3.8-5.4,3-8.3"/>
  <path class="st7" d="M164.5,53.8c-4-3.9-4.9-10.5-2.3-15.3,2.7-4.9,8.8-7.6,14.2-6.3,1.6-2,4.1-3.3,6.6-3.4.6-5.1,4.7-9.6,9.8-10.6,5-1,10.6,1.6,13.1,6,3.8-4.7,10.5-6.9,16.4-5.5,5.9,1.4,10.8,6.4,12.1,12.4,4.5-1.2,9.6-1.4,13.6.9,4.1,2.3,6.7,7.5,5,11.8,1.9.2,3.3,1.9,3.8,3.8.5,1.8.2,3.8,0,5.7,4,1.9,7.1,5.7,8,10.1.9,4.3-.4,9.1-3.3,12.4,2.7,5.1,1.9,11.9-2,16.3-.3.4-.7.8-.9,1.2-.3.9.2,1.8.4,2.7,1.2,3.7-.9,8.1-4.6,9.4-3.6,1.3-8.1-.7-9.6-4.2-.7-1.7-.7-3.6-.8-5.4-.2-6.2-.4-12.6-3.1-18.2-2.8-5.8-7.9-10.2-12.9-14.3-7.3-6.1-14.9-12.3-24-15.2-10.2-3.3-21.3-2-31.7.5-3.1.7-6.5,1.8-8,4.7"/>
  <path class="st11" d="M155,65.6c9.6-1.4,22.5-8.2,37.4-5.2,10.7,2.1,20.6,7.2,29.5,13.7,8.8,6.4,16.7,14.1,24.4,21.8,1.1-1.7.8-3.9.4-5.9-1.8-10-4.9-19.8-9.2-29-1.3-2.8-2.8-5.6-4.5-8.2-5.2-7.9-12.8-14.2-21.7-17.4-8.9-3.2-18.9-3.2-27.6.4-6.8,2.8-12.6,7.6-17.4,13.1s-7.8,10.4-11.6,16.7"/>
  <path class="st8" d="M205.2,100.4c-12.3-9.3-28.1-15.1-43.6-13.2-2.2.2-4.4.7-6.6,1.2,17.3-5.4,36.6.6,50.2,12Z"/>
  <path class="st8" d="M239.1,88.8c-5.7,3.2-9.5,8.2-11.7,14.3-2.2,6.2-2.2,13.1,0,19.2.5,1.2,1,2.4,2,3.2.8.7,1.9,1,2.9,1.3,11.5,3.8,21.6,11.3,28.5,21.2,1.1,1.5,2.5,3.3,4.3,2.9.6-.1,1.1-.5,1.5-.8,2.9-2.5,4.2-6.4,4.8-10.2,1.7-10.8-.6-22.1-6.2-31.4-5.6-9.3-14.8-16.3-25.2-19.6"/>
  <path class="st13" d="M261.1,140c-2.5-6.8-7.1-12.7-12.1-18-6.4-6.8-13.8-12.9-22.3-16.5-1.5,5.6-1.3,11.5.7,16.9.5,1.2,1,2.4,2,3.2.8.7,1.9,1,2.9,1.3,11.5,3.8,21.6,11.3,28.5,21.2.6.9,1.3,1.8,2.2,2.3,0-3.6-.7-7.2-2-10.5l.1.1Z"/>
  <path class="st14" d="M254.1,140.2c1.2-7.5,10.9-11.9,17.3-7.8-1.8-.2-3.5-.2-5.1,0-5.1.6-9.3,3.6-12.2,7.8Z"/>
  <path class="st14" d="M243.4,131.7c-1.5-2.8-.3-6.2,1-8.8,4-8.3,14.4-13.1,23.2-10.2-3-.1-5.9.2-8.6,1-5.5,1.6-10.2,5.2-13.2,10-1.5,2.4-2.9,5.1-2.3,8h-.1Z"/>
  <path class="st14" d="M233.7,126.5c-1.8-13.3,6.4-29.3,20.7-30.7-13.2,4.5-19.4,17.7-20.7,30.7Z"/>
  <g class="st0">
    <g>
      <path class="st12" d="M208.3,71.3c-1,4.2-7.7,5.8-11,3.4,3.9-.7,7.7-1.2,11-3.4Z"/>
      <path class="st12" d="M209.9,75.2c-2.2,2.7-6.3,2.8-9.3,1.9-1-.4-2.1-.8-2.9-1.6h3.2c3,0,6.1.3,9-.3Z"/>
      <path class="st12" d="M210.1,79c-2.8,3.1-8.6.3-10.2-2.8,3,1,7,2.8,10.2,2.8Z"/>
      <path class="st5" d="M204.4,87.4c-2.4,6.6-8.1,10.6-12.8,8.9-4.7-1.7-6.5-8.4-4.1-15,2.4-6.6,8.1-10.6,12.8-8.9,4.7,1.7,6.5,8.4,4.1,15Z"/>
      <path class="st12" d="M197.8,85.6c1-4.5-.7-8.7-3.8-9.4-1.7-.4-3.4.4-4.8,1.9-.6,1-1.2,2-1.6,3.2-.8,2.3-1.1,4.6-1,6.8.6,2.3,1.9,4,3.8,4.4,3.1.7,6.4-2.4,7.4-6.9Z"/>
      <path class="st12" d="M169.8,65c1.3,3.8,3.9,6.6,6.5,9.5-4.1-.2-8.4-5.5-6.5-9.5Z"/>
      <path class="st12" d="M166.1,67.2c2,2.3,4.5,4,6.9,5.8.8.6,1.7,1.2,2.5,1.9-1.1,0-2.2-.2-3.3-.5-3-1.1-6.2-3.7-6.2-7.2h.1Z"/>
      <path class="st12" d="M163.6,70c2.5,1.9,6.8,3,9.8,4-3.2,1.5-9.5.2-9.8-4Z"/>
      <path class="st5" d="M179.4,80.6c-1.5,5.5-5.7,9.1-9.6,8.1-3.8-1-5.7-6.4-4.3-11.9,1.5-5.5,5.7-9.1,9.6-8.1,3.8,1,5.7,6.4,4.3,11.9Z"/>
      <path class="st12" d="M174,79.6c.5-3.7-1.2-7-3.7-7.3-1.4-.2-2.7.6-3.7,1.8-.4.8-.8,1.7-1,2.7-.5,1.9-.6,3.8-.3,5.5.6,1.8,1.8,3.1,3.3,3.3,2.5.3,5-2.4,5.4-6.1v.1Z"/>
    </g>
  </g>
  <path class="st12" d="M187.5,81.3c1.1-5.7,6.8-11.9,13.1-9.8,6.2,2.4,6.6,10.9,3.7,15.9,1-4.9.7-11.9-4.4-14.1-5.3-1.7-10,3.5-12.4,7.9v.1Z"/>
  <path class="st12" d="M165.6,76.8c.3-4.7,4.5-10.4,9.9-9,5.2,1.6,6.1,8.5,4,12.8.3-4-.4-9.5-4.5-10.9-4.2-1-7.6,3.5-9.3,7.1h-.1Z"/>
  <path class="st8" d="M205.2,100.4c-14.6-9.8-32.6-15.6-50.2-12,17.1-6.5,37.2-.2,50.2,12Z"/>
  <path class="st13" d="M162.1,86.7c-3.4.6-7.8,1.1-7.4,5.1.4,4,5.5,16.9,12.7,17.1,7.2.2,15.2-7.8,16.9-12,1.7-4.2,1.5-7.2-11.4-10.1-6.3-.8-10.8-.2-10.8-.2v.1Z"/>
  <path class="st14" d="M181.1,101.6c-7.1-2.3-8,2.6-7.8,5.9,3-1.4,5.7-3.7,7.8-5.9Z"/>
  <path class="st14" d="M157.3,99.6c1.3,2.6,2.9,5.1,4.9,6.9,1.6-5.5-1.6-6.8-4.9-6.9Z"/>
  <path class="st12" d="M165.9,117.3c.3,2.7.8,5.4,1.6,8,.4,1.5,1,3.1,2,4.3.8,1,1.9,1.8,3.1,2.4,5,2.4,11.3.8,15.5-2.9,4.2-3.7,6.5-9,7.8-14.4.3-1.4.6-2.8.3-4.2-9.1,5.3-19.8,7.6-30.2,6.6"/>
  <g class="st3">
    <g>
      <path class="st11" d="M169,134.8c5.1-9.2,16.2-14.7,26.6-13,1.5.2,3.3.9,3.7,2.3.2.8,0,1.6-.3,2.3-1.3,3.4-4,6.1-7.1,7.9-3.1,1.8-6.7,2.8-10.2,3.4-2.4.4-4.8.7-7.1,0-2.3-.6-4.5-2.2-5.1-4.6"/>
      <path class="st4" d="M170.6,115.9c1.4,2.1,3.7,3.3,6.2,3.8,2.4.5,5,.2,7.4-.1,2.9-.4,5.7-.9,8.5-1.6,1.4-.3,2.8-.7,4-1.4,2.4-1.4,4-4.2,3.9-6.9,0-1.3-.3-2.5-1.1-3.5-1.2-1.6-3.4-2.2-5.4-2.1-2,.2-3.9,1-5.8,1.8-3.9,1.7-7.9,3.4-11.8,5.1-2.5,1.1-4.9,2.2-7,3.9"/>
    </g>
  </g>
  <path class="st8" d="M162,116.9c11.9-1,23.6-2,34.7-7-8.9,8.7-23.1,10.2-34.7,7Z"/>
  <path class="st8" d="M192.5,107.9c3-1.2,6.8,1.6,6.5,4.8-1.1-.8-2.2-1.7-3.2-2.4-1-.8-2.2-1.6-3.3-2.4Z"/>
  <path class="st8" d="M169.5,129.5c5.1,4.7,13.3,2.9,18.1-1.4,2.5-2.2,4.3-5,5.8-8,1.3-3.1,2.9-6.3,2.9-9.7.9,3.5-.4,7-1.5,10.3-1.2,3.4-3.2,6.5-5.9,8.9-5.1,4.8-14.9,6.2-19.4,0v-.1Z"/>
  <path class="st8" d="M159.9,64.6c-3.1,1.4-6.6,1.3-9.9,1.8-2,.2-4.2.1-5.7,1.4-2.6,2.1-1.2,5.6,1.9,6.9-1.1,0-2.3-.5-3.2-1.3-2.2-1.7-2-5.2,0-7,1.9-1.8,4.6-1.9,6.9-1.9,3.4-.2,6.7.2,10,0v.1Z"/>
  <path class="st8" d="M153,69.9c-4.7,1.3-7.6,6.2-8,10.8,0,1.5.4,3.1,1.4,3.5,1.1.5,2.8,0,4-.4,4.4-1.4,8.1-5.1,8.9-9.8.9,5.3-3.4,10.2-8.2,11.7-1.8.5-3.7,1.1-5.5,0-1.9-1.1-2-3.4-1.8-5.2.7-4.9,4.2-9.9,9.3-10.7l-.1.1Z"/>
  <g class="st2">
    <g>
      <path class="st7" d="M226.2,74.9c-5,4.1-7,11.4-5,17.4.5,1.5,1.4,3,2.9,3.5,1.3.4,2.8,0,3.9-1,1.1-.9,1.8-2.1,2.5-3.3,1.9,1.8,4,3.4,6.3,4.6,1,.5,2.2,1,3.2.6,1.2-.5,1.7-1.9,1.9-3.1.6-4.1-.8-8.5-3.7-11.5"/>
      <path class="st8" d="M226.2,74.9c-3.8,3.7-5.6,9.2-4.8,14.3.9,6.6,4.9,8.1,8.2,1.8l.6-1.1c1.8,1.9,3.9,3.6,6.1,4.9,1,.6,1.9,1.1,2.7,1.1,2,0,2.2-3,2.3-4.6,0-3.4-1.1-6.7-3.2-9.3,2.6,2.3,4.3,5.8,4.5,9.3.4,5.2-2.3,8.1-7.1,5.1-2.1-1.1-4-2.6-5.7-4.2l1.5-.2c-1.3,2.5-3.7,5.6-7.2,4.8-3.2-.9-4.1-4.6-4.4-7.4-.5-5.5,1.9-11.4,6.4-14.5h.1Z"/>
    </g>
  </g>
  <path class="st8" d="M172.3,136.9c1.7,3.6,4.9,6,8.7,6.3l-.6.9c-.6-1.7-1.1-3.4-1.4-5.1,1.2,1.7,2.1,3.6,3,5.5-4.6.7-9.6-2.7-9.7-7.5v-.1Z"/>
  <path class="st8" d="M179.1,138.6c2.2,1.4,4.6,2.4,7.1,2.5l-.6,1.1c-.7-1.4-1.2-2.9-1.1-4.5,1,1.7,1.9,3.2,3,4.7-3.2.5-6.9-.7-8.4-3.8Z"/>
  <path class="st8" d="M184.4,137.4c1,.3,2,.8,2.9,1.2.9.4,2,.8,2.9,1.2-2.1,1.3-5.3,0-5.9-2.4h.1Z"/>
  <path class="st8" d="M172.6,37c2.6-6.8,11.7-10.5,18.3-7.3-1.8,0-3.5.1-5.1.4-5,.9-9.5,3.3-13.2,6.9Z"/>
  <path class="st8" d="M210.7,31.6c2-3.6,7.7-4.2,10.8-1.4,1,.9,2,2.1,1.8,3.5-2.9-3.8-8.5-4.1-12.6-2.1Z"/>
  <path class="st8" d="M219.4,35.4c4-4.6,12.6-2.6,14.1,3.3-3.8-3.7-9.1-4.9-14.1-3.3Z"/>
  <path class="st8" d="M248.4,65.3c6.1,6.6,6.3,18.1.4,24.8,3.2-8,3-16.9-.4-24.8Z"/>
  <path class="st8" d="M254.3,89.2c4.9,1.1,7.5,7.7,4.6,11.8-.2-4.5-1.7-8.4-4.6-11.8Z"/>
  <path class="st8" d="M254.4,66.5c7.8,2.3,10.8,12.3,8,19.4-.1-1.9-.3-3.7-.6-5.5-.8-5.4-3.1-10.2-7.5-13.9h.1Z"/>
  <path class="st10" d="M164.2,167.2l6,1.4-4.1,5.8-2.5-1.7.6-5.5Z"/>
  <path class="st10" d="M156.6,180.6l7.9-9.3,2.3.7-1.3,13.3-8.9-4.7Z"/>
  <path class="st10" d="M168.7,170.1c11,3.8,22.9,3.6,34.2,1.6,11.4-2.1,21.9-7.5,30.7-15-7.8,8.9-18.7,14.8-30.3,17-11.5,2.1-24,1.8-34.6-3.5v-.1Z"/>
  <path class="st10" d="M144.7,143.6c-.2,4.4,1.5,8.5,3.4,12.4,3.2,6.4,9.1,11.4,16.3,12.6-9.5,1.1-17.5-7.3-19.6-16-.8-2.9-1.2-6.1-.1-8.9v-.1Z"/>
  <path class="st10" d="M107.2,176c4.9,3.8,10.7,6.3,16.4,8.6,8.7,3.2,17.6,6.1,26.8,7.2,1,.1,2.1,0,3.1,0l-1.5.3c-13.1,1.4-36-6.2-44.8-16.2v.1Z"/>
  <path class="st10" d="M159.3,193.4c15,10.2,51.5,15,69.9,14.8,3.4,0,6.9-.3,10.2-1.3-1.6.8-3.3,1.2-5,1.5-19.2,3.6-60.2-2-75.1-15Z"/>
  <path class="st10" d="M162.3,179.9c-5.3,12.3-13.4,37.9-4.2,49.3-1.7-1.4-3-3.3-3.9-5.3-5.4-12.6.7-33.1,8.1-44Z"/>
  <path class="st9" d="M214.3,56.3c10.9,8.8,19.9,19.9,26.3,32.4-7-12.1-15.9-23.1-26.3-32.4Z"/>
  <path class="st9" d="M230.9,61.7c6.2,8.4,10.6,18.1,13,28.2-3.1-9.9-7.5-19.4-13-28.2Z"/>
  <path class="st8" d="M30.2,188.6c.2-12.8,16.8-18.9,25.2-9.2-9.7-6.4-21.9-1.9-25.2,9.2Z"/>
  <path class="st8" d="M30.1,188.6c5.5.9,10.9.2,16.5.3-4.3,2.7-12.5,3.2-16.5-.3Z"/>
  <path class="st8" d="M38.6,166.8c2.8,1.8,4.1,5.8,2.8,8.9-1.5-2.9-2.4-5.7-2.8-8.9Z"/>
  <path class="st8" d="M38.8,190.4c2.1,4.7,6.3,7.1,10,10.3-5-.5-10.8-4.8-10-10.3Z"/>
  <path class="st10" d="M102.5,227.3c12.1-8.2,33.9-4.1,47,.6,2.1.8,4.3,1.7,6.2,2.9-13.8-4.5-39.8-9.7-53.2-3.5Z"/>
  <path class="st10" d="M158.7,230.8c26.7-4.6,56.5,1.8,78.2,18.2-23.4-14-51.1-19.9-78.2-18.2Z"/>
  <path class="st8" d="M292.6,235.7c-12.8-3-26-2.1-38.4,2.3,11.3-7.1,26.4-8.1,38.4-2.3Z"/>
  <path class="st8" d="M256,305c3.6-3.6,5.8-8,6.9-13,1.9,5.2-1.5,11.7-6.9,13Z"/>
  <path class="st8" d="M262.7,292c2.3-.6,4.7-.6,6.9-1.1.7-.1,1.5-.3,2.4-.6-.3.9-1,1.5-1.8,2-2.3,1.3-5.3,1.2-7.5-.4v.1Z"/>
  <path class="st10" d="M89.7,260.8c17.2-8.9,38.4-9.9,56.4-2.6-19.4-4.5-37.5-3.7-56.4,2.6Z"/>
  <path class="st10" d="M147,258.3c24-2.5,53.7,3.8,73.7,17.4-22.6-11.5-48.4-16.9-73.7-17.4Z"/>
  <path class="st10" d="M158.4,229.9c-1.5,1.7-4.1,3.4-5.1,5.2-.4.9.7,1.6,1.1,2.4.8,1.1,1.5,2.2,2,3.4-1.5-.9-2.7-1.9-3.9-3-.6-.5-1.2-1.2-1.3-2.1-.3-3.2,4.6-5.3,7.2-5.8v-.1Z"/>
  <path class="st10" d="M131.8,241.1c17.8-1.8,36.7-2.1,53.2,5.6-17.3-5-35.4-4.6-53.2-5.6Z"/>
  <path class="st10" d="M156.2,242.3c-8.4,13.3-13.8,28.4-15,44.1-1.6-15.8,4.3-32.4,15-44.1Z"/>
  <path class="st8" d="M176.5,32.1c-10.8-.5-17.7,9.7-13.3,19.6-1.8-1.9-2.7-4.5-2.9-7.1-.7-8.4,8.2-15.4,16.2-12.4v-.1Z"/>
  <path class="st8" d="M198,18.2c-5.1.1-9.9,2.2-12.9,6.4-1,1.3-1.8,2.9-2.4,4.5-.8-7.7,8.3-14.1,15.3-11v.1Z"/>
  <path class="st8" d="M40.3,159.1c-.2-8.1-1.2-16.4-5.3-23.5l2.1.5c5.8,1.5,10.7,5.2,14.6,9.6,3.9,4.3,5.9,10.8,4,16.4,1.4-8.9-4.7-16-11.7-20.7-2.3-1.5-4.8-2.8-7.4-3.5l1.1-1.4c3.3,7,3.6,14.9,2.6,22.4v.2Z"/>
  <path class="st8" d="M55.3,161.8c6.9,4.6,12.5,13.8,9.1,22.1.5-8.5-4.5-15.5-9.1-22.1Z"/>
  <path class="st8" d="M64.7,183.5c14.4,7.8,25.1,24.2,23.1,41-.6,5.5-2.6,10.9-6,15.2,2.7-4.7,4.1-10,4.5-15.3,1-16.4-8.8-31.3-21.6-40.9Z"/>
  <path class="st8" d="M18.4,176.8c-6.8,4-7.2,13.2-2.8,19,4.1,6.2,13.4,8,18.2,1.5-1.5,3.7-5.7,5.9-9.7,5.7-4.1-.2-7.8-2.7-10.2-6-4.9-6.5-3.9-17.3,4.4-20.2h.1Z"/>
  <path class="st8" d="M24.5,169.5c-3.1,1.9-5.3,5.1-5.8,8.4-.6,3.4,1,6.6,3.1,9.5,2,2.9,4.3,5.8,7.3,7.4,3,1.6,7.1,1.8,9.9-.5-2.4,3.1-7.1,3.4-10.5,1.9-3.6-1.5-6.1-4.6-8.3-7.7-1-1.5-2.1-3.2-2.7-5.1-2.1-5.6,1.7-12.3,7.1-14l-.1.1Z"/>
  <path class="st8" d="M40.6,159.2c-2.7-2.1-6.3-2.5-9.1-1.1-5.6,2.7-6.6,11.5-5.2,16.9.9,3.1,2.7,6,5.5,7.9-3.2-1.2-5.7-4.1-7-7.5-2.2-6.1-.8-16.3,6.1-18.8,3.4-1.3,7.5-.3,9.7,2.6Z"/>
  <path class="st8" d="M20.4,200.2c.6,2.8,2.6,4.9,4.5,6.8,2,2,4.3,3.8,6.7,5.4,0,0,.8,3.2.9,3.3,3.8,15,14,28.1,27.5,35.7-14.8-5.9-25.8-19.9-29.1-35.3l-.7-3.1.3.5c-2.3-1.8-4.4-3.7-6.2-5.9-1.8-2.2-3.6-4.6-3.8-7.5l-.1.1Z"/>
  <path class="st1" d="M82,291s-7,25.89-2,62.89,173.1,12,173.1,12l-3.5-40.49s-82.6-87.29-167.6-34.4Z"/>
</svg>