<svg width="547" height="544" viewBox="0 0 547 544" fill="none" xmlns="http://www.w3.org/2000/svg">
<g filter="url(#filter0_d_4062_16748)">
<g clip-path="url(#clip0_4062_16748)">
<path d="M372.009 35.4892C368.39 34.3914 365.067 32.4926 362.278 30.0301C357.353 36.4682 349.818 40.7999 341.155 41.2746C329.377 41.8976 318.875 35.2221 313.891 25.1348C310.123 34.2431 301.49 40.8592 291.136 41.4229C282.741 41.8679 275.027 38.2484 269.924 32.2553C264.97 41.7493 255.358 48.4247 244.025 49.0478C240.821 49.2258 237.676 48.8994 234.71 48.128C213.142 69.6379 200.414 100.137 202.194 133.248C205.487 194.395 256.93 241.331 317.065 238.097C377.201 234.863 423.303 182.676 420.01 121.529C418.052 85.4513 399.362 54.3288 372.009 35.5188" fill="#90D5EC"/>
<path d="M318.134 75.9582L320.27 61.0645L314.989 74.8901L318.134 75.9582Z" fill="#A02C36"/>
<path d="M312.971 72.5167L311.577 64.3281L311.132 72.4574L312.971 72.5167Z" fill="#A02C36"/>
<path d="M321.071 73.822L325.788 66.9685L319.795 72.4869L321.071 73.822Z" fill="#A02C36"/>
<path d="M510.851 319.005C515.331 257.59 419.15 238.246 419.15 238.246C419.15 238.246 390.165 252.398 392.984 253.496C410.576 260.379 436.09 284.114 440.125 293.193C447.453 309.778 439.087 322.891 431.64 330.486C429.979 332.177 423.007 338.022 423.007 338.022C421.939 339.12 420.841 340.425 419.833 342.027C416.747 346.834 414.225 354.043 414.967 364.576C416.718 388.963 429.356 397.686 429.356 397.686L434.577 388.37L445.109 403.56L444.694 388.133L466.736 398.368L458.251 377.927L458.874 377.422C466.084 374.811 508.033 357.989 510.881 319.034L510.851 319.005Z" fill="#C15A2A"/>
<path d="M486.346 283.729C476.942 288.743 466.944 292.125 456.412 293.846C465.816 288.832 475.814 285.449 486.346 283.729Z" fill="#A02C36"/>
<path d="M493.586 292.984C488.364 296.485 482.52 298.384 476.23 298.562C481.452 295.061 487.296 293.192 493.586 292.984Z" fill="#A02C36"/>
<path d="M478.425 293.756C470.03 297.791 461.248 300.609 452.081 302.182C460.447 298.147 469.258 295.328 478.425 293.756Z" fill="#A02C36"/>
<path d="M478.336 344.342C478.336 344.342 477.03 344.55 475.132 344.58C474.182 344.58 473.055 344.58 471.868 344.52C470.682 344.461 469.436 344.342 468.16 344.224C467.537 344.135 466.914 344.046 466.291 343.986C465.668 343.927 465.075 343.779 464.481 343.69C463.324 343.482 462.227 343.245 461.307 343.007C459.438 342.562 458.222 342.058 458.222 342.058C458.222 342.058 459.527 341.85 461.426 341.82C462.375 341.82 463.502 341.82 464.689 341.88C465.282 341.909 465.905 341.939 466.528 341.998C467.151 342.058 467.774 342.117 468.397 342.176C469.643 342.354 470.919 342.503 472.076 342.71C473.233 342.918 474.331 343.156 475.25 343.393C477.119 343.838 478.336 344.342 478.336 344.342Z" fill="#A02C36"/>
<path d="M443.358 366.742C443.358 366.742 443.062 366.95 442.498 367.217C441.964 367.513 441.163 367.84 440.243 368.166C438.374 368.819 435.853 369.264 433.331 369.353C430.809 369.412 428.258 369.086 426.359 368.552C425.41 368.285 424.609 367.958 424.045 367.721C423.481 367.484 423.155 367.276 423.155 367.276C423.155 367.276 423.481 367.068 424.015 366.772C424.549 366.475 425.35 366.149 426.27 365.822C428.139 365.17 430.661 364.725 433.183 364.665C435.704 364.606 438.256 364.932 440.154 365.496C441.104 365.763 441.905 366.089 442.468 366.327C443.032 366.564 443.358 366.772 443.358 366.772V366.742Z" fill="#A02C37"/>
<path d="M447.482 357.484C447.482 357.484 446.237 357.87 444.338 358.167C443.389 358.315 442.291 358.464 441.104 358.553C439.918 358.671 438.672 358.731 437.396 358.76C436.773 358.76 436.12 358.76 435.497 358.76C434.874 358.76 434.251 358.731 433.658 358.731C432.471 358.701 431.374 358.612 430.424 358.493C428.525 358.286 427.25 357.989 427.25 357.989C427.25 357.989 428.496 357.603 430.395 357.307C431.344 357.158 432.442 357.01 433.628 356.921C434.222 356.891 434.845 356.802 435.438 356.773C436.061 356.773 436.684 356.713 437.337 356.684C438.612 356.684 439.858 356.684 441.045 356.713C442.232 356.743 443.329 356.832 444.279 356.951C446.177 357.158 447.453 357.455 447.453 357.455L447.482 357.484Z" fill="#A02C37"/>
<path d="M455.255 323.336C458.844 323.336 458.844 317.758 455.255 317.758C451.665 317.758 451.665 323.336 455.255 323.336Z" fill="#C15A2A"/>
<path d="M230.527 233.766C230.527 233.766 196.499 233.202 186.501 252.606C180.063 265.096 170.125 281.919 160.097 290.107C139.894 306.633 130.964 309.095 130.964 309.095C130.964 309.095 168.523 386.709 204.983 354.577C232.129 330.694 209.908 260.705 209.908 260.705L230.527 233.737V233.766Z" fill="#C7A15F"/>
<path d="M123.874 319.657C123.874 319.657 126.336 320.25 127.909 319.004C129.481 317.758 141.971 306.662 141.971 306.662L176.919 351.907L158.763 374.069C158.763 374.069 135.86 346.804 135.326 346.092C134.792 345.38 123.904 319.627 123.904 319.627" fill="#C7A15F"/>
<path d="M126.93 318.262C126.93 318.262 102.811 263.612 63.828 277.942C16.6276 295.269 47.2144 389.23 47.2144 389.23L74.3302 382.109C74.3302 382.109 90.2614 411.155 114.855 407.862C139.449 404.568 160.928 370.983 160.928 370.983L126.93 318.262Z" fill="#26221D"/>
<path d="M147.815 387.45C155.855 378.905 161.61 369.945 161.61 369.945L138.144 330.219L125.802 348.643L112.749 337.043L93.5245 357.692L79.9963 346.448L57.9833 369.322L40.7764 362.706C43.5354 378.074 47.1548 389.26 47.1548 389.26L74.2705 382.139C74.2705 382.139 76.6142 386.411 80.8863 391.485L98.0932 373.001L112.363 373.772L127.671 357.751L147.726 387.479L147.815 387.45Z" fill="#C7A15F"/>
<path d="M47.184 389.229C49.3793 388.368 51.5747 387.538 53.7701 386.737C55.9654 385.906 58.1905 385.164 60.4155 384.393C62.6405 383.621 64.8359 382.85 67.0609 382.138C69.286 381.426 71.511 380.654 73.736 379.972L72.5493 380.773L78.8388 371.754C80.9748 368.757 83.1108 365.79 85.2765 362.824L86.2555 361.488L88.0356 361.696C91.1803 362.023 94.2953 362.438 97.4104 362.824L106.785 364.04L103.996 365.049C106.578 362.26 109.159 359.441 111.769 356.682C114.35 353.893 116.991 351.164 119.631 348.405L122.182 345.734L124.14 348.701C126.217 351.846 128.294 355.021 130.311 358.225L133.367 363.002C134.376 364.604 135.355 366.236 136.363 367.838C138.351 371.042 140.309 374.305 142.208 377.569C144.106 380.833 146.005 384.126 147.785 387.508C145.234 384.66 142.801 381.782 140.368 378.874C137.965 375.967 135.562 373 133.219 370.033C132.062 368.55 130.845 367.066 129.718 365.583L126.276 361.073C123.962 358.077 121.708 355.05 119.453 352.024L123.962 352.321C121.47 355.199 118.949 358.077 116.427 360.895C113.905 363.743 111.324 366.562 108.773 369.38L107.646 370.626L105.984 370.389L96.639 369.084C93.524 368.609 90.4089 368.164 87.2939 367.66L90.0529 366.503C87.7686 369.38 85.4545 372.229 83.1405 375.047L76.0797 383.503L75.516 384.155L74.8634 384.304C72.579 384.778 70.265 385.223 67.9806 385.698C65.6962 386.173 63.3822 386.618 61.0682 387.004C58.7541 387.419 56.4698 387.864 54.1261 388.22C51.812 388.606 49.498 388.962 47.1543 389.288" fill="#7C6C36"/>
<path d="M63.5898 325.383C66.1412 328.587 65.6072 333.245 62.4328 335.826C59.2584 338.407 54.571 337.873 51.9899 334.639C49.4386 331.435 49.9726 326.777 53.1766 324.196C56.3807 321.615 61.0384 322.178 63.5898 325.383Z" fill="#52697E"/>
<path d="M78.602 289.453C79.937 291.115 79.67 293.548 77.979 294.883C76.2879 296.218 73.8849 295.951 72.5499 294.26C71.2149 292.568 71.4819 290.165 73.1729 288.83C74.8639 287.495 77.267 287.762 78.602 289.453Z" fill="#52697E"/>
<path d="M117.318 380.834C118.653 382.496 118.386 384.928 116.695 386.263C115.004 387.599 112.601 387.332 111.266 385.64C109.931 383.949 110.198 381.546 111.889 380.211C113.58 378.876 115.983 379.143 117.318 380.834Z" fill="#52697E"/>
<path d="M88.6293 316.779C89.9643 318.441 89.6973 320.874 88.0063 322.209C86.3153 323.544 83.9122 323.277 82.5772 321.586C81.2422 319.895 81.5092 317.491 83.2002 316.156C84.8913 314.821 87.2943 315.088 88.6293 316.779Z" fill="#52697E"/>
<path d="M113.52 319.715C116.012 322.83 115.508 327.399 112.363 329.891C109.219 332.383 104.68 331.879 102.187 328.734C99.6954 325.589 100.2 321.05 103.345 318.558C106.46 316.066 111.028 316.57 113.52 319.715Z" fill="#52697E"/>
<path d="M140.309 389.467C141.97 391.574 141.644 394.63 139.538 396.291C137.431 397.952 134.376 397.626 132.714 395.52C131.053 393.413 131.379 390.357 133.486 388.696C135.592 387.034 138.648 387.361 140.309 389.467Z" fill="#52697E"/>
<path d="M110.435 399.642C112.927 402.758 112.423 407.327 109.308 409.819C106.193 412.311 101.624 411.807 99.1318 408.662C96.6398 405.517 97.1441 400.978 100.289 398.485C103.404 395.993 107.973 396.498 110.465 399.642" fill="#52697E"/>
<path d="M49.7357 299.956C52.4057 303.279 51.842 308.144 48.5193 310.815C45.1966 313.485 40.3312 312.921 37.6611 309.598C34.9911 306.275 35.5548 301.41 38.8775 298.739C42.2002 296.069 47.0656 296.633 49.7357 299.956Z" fill="#52697E"/>
<path d="M111.236 286.576C113.283 289.128 112.867 292.866 110.286 294.913C107.735 296.96 103.997 296.545 101.95 293.964C99.9028 291.412 100.318 287.674 102.899 285.627C105.451 283.58 109.189 283.995 111.236 286.576Z" fill="#52697E"/>
<path d="M155.855 287.08L216.197 336.746L194.481 367.037L161.58 382.05L128.146 309.51" fill="#26221D"/>
<path d="M147.993 296.19C149.773 298.949 148.972 302.628 146.213 304.378C143.454 306.158 139.775 305.357 137.995 302.598C136.215 299.839 137.016 296.16 139.775 294.41C142.534 292.659 146.213 293.43 147.963 296.19" fill="#52697E"/>
<path d="M176.444 370.954C177.601 372.734 177.067 375.137 175.287 376.294C173.507 377.451 171.104 376.917 169.947 375.137C168.79 373.357 169.324 370.954 171.104 369.797C172.884 368.639 175.287 369.173 176.444 370.954Z" fill="#52697E"/>
<path d="M166.149 344.875C167.603 347.13 166.95 350.156 164.696 351.58C162.441 353.004 159.415 352.381 157.991 350.097C156.537 347.842 157.19 344.846 159.474 343.392C161.759 341.938 164.725 342.591 166.179 344.846" fill="#52697E"/>
<path d="M171.964 316.009C174.13 319.361 173.151 323.841 169.769 326.007C166.416 328.173 161.937 327.194 159.771 323.811C157.605 320.459 158.584 315.979 161.966 313.813C165.348 311.647 169.799 312.626 171.964 316.009Z" fill="#52697E"/>
<path d="M209.582 345.559C211.925 348.792 211.184 353.332 207.95 355.646C204.716 357.99 200.177 357.248 197.834 354.014C195.49 350.78 196.232 346.241 199.465 343.897C202.699 341.553 207.238 342.295 209.552 345.529" fill="#52697E"/>
<path d="M248.298 365.051C248.298 365.051 248.802 352.413 219.402 353.659C186.857 355.053 190.506 366.476 190.506 366.476C209.642 400.417 212.579 459.19 212.579 459.19C206.764 480.166 218.156 468.417 218.156 468.417C252.985 434.298 248.298 365.051 248.298 365.051Z" fill="#994627"/>
<path d="M346.318 369.294C342.817 361.017 322.852 355.35 300.809 362.826C275.918 371.252 283.454 397.865 283.454 397.865C283.454 397.865 279.478 440.44 317.096 471.444C317.096 471.444 329.586 481.561 323.504 461.06C323.504 461.06 318.52 445.306 332.701 415.577C332.701 415.577 349.819 377.572 346.289 369.294H346.318Z" fill="#994627"/>
<path d="M178.728 336.213C178.728 336.213 177.156 363.627 180.538 377.482C180.538 377.482 195.787 436.701 164.666 463.433C164.666 463.433 145.264 478.445 171.964 473.876C171.964 473.876 249.455 462.097 238.152 359.236C235.096 331.407 230.972 317.373 226.374 308.68C218.067 303.933 204.331 305.714 189.587 312.063C179.796 318.026 178.194 332.682 178.728 336.213Z" fill="#C1592B"/>
<path d="M263.458 326.333C235.007 324.701 234.503 344.698 234.503 344.698C234.503 344.698 231.743 357.129 231.031 410.919C231.002 414.212 234.147 463.047 266.454 479.127C266.454 479.127 293.599 492.953 277.876 472.274C277.876 472.274 271.112 452.722 286.034 419.078C300.274 386.917 298.02 376.503 301.55 367.365C306.712 354.518 290.544 327.876 263.458 326.333Z" fill="#C1592B"/>
<path d="M231.447 390.863C231.269 396.827 231.15 403.472 231.031 410.949C231.031 413.026 232.277 433.349 241.385 452.04L276.452 456.283C276.867 447.293 279.122 434.713 286.034 419.078C292.264 404.985 295.35 395.076 297.13 387.6L231.417 390.833L231.447 390.863Z" fill="#ECE7D7"/>
<path d="M290.039 409.584L231.239 399.734C231.239 400.179 231.239 400.595 231.239 401.04L289.09 412.047C289.446 411.216 289.772 410.385 290.099 409.584H290.039Z" fill="#A48B7F"/>
<path d="M232.011 420.71L286.094 418.959C286.361 418.336 286.628 417.713 286.895 417.09L231.862 419.82C231.892 420.116 231.951 420.413 231.981 420.71H232.011Z" fill="#A48B7F"/>
<path d="M234.681 433.674L277.016 449.903C277.105 449.162 277.223 448.39 277.342 447.589L234.295 432.221C234.414 432.695 234.532 433.17 234.681 433.674Z" fill="#A48B7F"/>
<path d="M435.379 464.589C435.379 464.589 414.256 450.348 416.54 404.955C416.54 404.955 416.214 384.068 418.913 354.429C418.913 354.429 420.426 335.085 415.798 325.413C410.162 323.396 410.399 322.239 401.974 320.844C389.306 318.708 364.356 321.052 358.037 327.431C351.717 333.81 360.647 392.643 363.08 401.543C369.102 432.339 382.008 465.806 420.723 472.392C420.723 472.392 465.372 480.254 435.379 464.589Z" fill="#C1592B"/>
<path d="M363.08 401.513C366.195 417.475 371.179 434.149 380.643 447.411L418.202 431.775C416.748 424.388 416.006 415.517 416.54 404.955C416.54 404.955 416.362 394.274 417.252 377.393C405.326 379.232 365.602 385.344 360.262 386.531C361.359 393.651 362.427 399.229 363.05 401.484L363.08 401.513Z" fill="#ECE7D7"/>
<path d="M364.592 408.604L409.627 403.382L373.938 436.018C374.086 436.315 374.205 436.611 374.353 436.908L381.532 430.559L417.548 428.007C417.489 427.562 417.43 427.147 417.37 426.702C410.695 426.939 388.771 427.711 384.44 428.037L412.683 403.056L416.54 402.611C416.54 402.255 416.54 401.84 416.54 401.395L364.147 406.616C364.296 407.299 364.444 407.951 364.592 408.634V408.604Z" fill="#A48B7F"/>
<path d="M339.198 438.392L352.934 483.992L365.513 481.856L359.342 436.285L339.198 438.392Z" fill="#672E1C"/>
<path d="M344.004 454.324L361.151 449.725L359.905 440.35L340.562 442.931L344.004 454.324Z" fill="#421B0D"/>
<path d="M306.742 415.606L372.425 401.721L376.935 426.939L317.867 442.96L306.742 415.606Z" fill="#672E1C"/>
<path d="M328.014 437.472L336.973 448.983L364.356 443.376L365.661 426.791L328.014 437.472Z" fill="#672E1C"/>
<path d="M306.742 415.606L372.425 401.721C372.425 401.721 374.976 418.958 348.246 425.93C348.246 425.93 318.905 431.004 306.712 415.606" fill="#8F4432"/>
<path d="M298.82 353.57C298.82 353.57 291.433 397.39 320.833 420.384C320.833 420.384 346.466 421.363 365.037 412.314C365.037 412.314 374.472 381.874 367.826 345.055L298.82 353.57Z" fill="#C1592B"/>
<path d="M329.764 439.727L365.394 430.055L365.157 434.831L331.811 442.367L329.764 439.727Z" fill="#421B0D"/>
<path d="M336.498 133.872C336.498 133.872 336.438 133.813 336.379 133.664C336.32 133.546 336.26 133.308 336.29 133.011C336.29 132.715 336.379 132.329 336.646 131.973C336.883 131.617 337.21 131.231 337.625 130.964C338.04 130.668 338.515 130.43 338.99 130.223C339.494 130.015 340.028 129.896 340.562 129.807C340.859 129.778 341.037 129.718 341.452 129.718C341.69 129.718 341.957 129.689 342.224 129.718C342.876 129.748 343.529 129.837 344.093 129.985C346.436 130.549 348.335 131.943 349.433 133.219C349.996 133.872 350.382 134.465 350.619 134.94C350.857 135.385 350.946 135.682 350.946 135.682C350.946 135.682 350.649 135.652 350.145 135.533C349.67 135.444 348.988 135.266 348.246 135.088C346.733 134.703 344.923 134.109 343.203 133.694C342.758 133.575 342.402 133.516 342.046 133.427C341.808 133.427 341.541 133.368 341.304 133.308C341.215 133.249 340.918 133.249 340.711 133.219C340.295 133.16 339.88 133.101 339.494 133.071C339.108 133.041 338.782 133.011 338.456 133.011C337.833 133.011 337.328 133.101 336.972 133.338C336.616 133.575 336.498 133.872 336.498 133.872Z" fill="#A02C36"/>
<path d="M409.034 235.902C406.631 221.127 403.16 204.78 398.176 187.068C374.027 101.088 317.362 68.6893 317.362 68.6893L271.438 77.8866L273.247 163.718C273.247 163.718 227.827 192.556 201.364 230.948C239.902 247.384 308.195 262.545 409.063 235.932" fill="#C1592B"/>
<path d="M266.929 58.7803C267.018 61.0944 265.238 63.0823 262.894 63.1713C260.58 63.2603 258.592 61.4801 258.503 59.1363C258.414 56.7925 260.194 54.8343 262.538 54.7453C264.882 54.6563 266.84 56.4661 266.929 58.7803Z" fill="#D0EBF9"/>
<path d="M253.4 78.9542C253.489 80.7046 252.124 82.1584 250.374 82.2474C248.624 82.3364 247.14 80.9716 247.081 79.2212C247.022 77.4707 248.357 76.017 250.107 75.9279C251.857 75.8389 253.311 77.2037 253.4 78.9542Z" fill="#D0EBF9"/>
<path d="M241.829 90.1686C242.007 94.5893 238.596 98.2979 234.205 98.4759C229.814 98.6539 226.076 95.242 225.898 90.851C225.72 86.46 229.132 82.7218 233.523 82.5438C237.913 82.3658 241.651 85.7777 241.829 90.1686Z" fill="#D0EBF9"/>
<path d="M280.011 59.9372C280.07 61.391 278.943 62.6074 277.489 62.6667C276.036 62.726 274.819 61.5986 274.73 60.1449C274.641 58.6911 275.798 57.4747 277.252 57.3857C278.706 57.2967 279.922 58.4537 279.981 59.9075" fill="#D0EBF9"/>
<path d="M222.694 123.131C222.813 125.682 220.825 127.818 218.274 127.937C215.723 128.056 213.587 126.068 213.468 123.516C213.349 120.965 215.337 118.829 217.888 118.71C220.44 118.591 222.576 120.579 222.694 123.131Z" fill="#D0EBF9"/>
<path d="M221.271 141.022C221.33 142.357 220.292 143.514 218.927 143.574C217.562 143.633 216.435 142.594 216.375 141.23C216.316 139.865 217.354 138.738 218.719 138.678C220.084 138.619 221.211 139.657 221.271 141.022Z" fill="#D0EBF9"/>
<path d="M276.214 77.3229C273.247 73.822 269.687 70.5288 265.771 67.7696C269.391 71.0035 272.654 74.8901 275.205 78.925C275.532 78.391 275.858 77.857 276.214 77.3229Z" fill="#A02C36"/>
<path d="M272.476 78.3312C270.904 77.6785 269.243 77.0258 267.552 76.373C269.302 77.5301 270.963 78.6872 272.506 79.9036C272.506 79.3696 272.506 78.8652 272.506 78.3312" fill="#A02C36"/>
<path d="M283.69 77.1145C282.296 74.7706 280.694 72.4565 278.914 70.3203C280.397 72.6048 281.762 75.0376 282.889 77.5298C283.156 77.3815 283.423 77.2628 283.72 77.1145" fill="#A02C36"/>
<path d="M311.963 173.213C311.963 173.213 311.073 175.616 316.71 186.95C323.474 200.597 337.952 207.51 337.952 207.51L337.863 179.414L327.598 176.981L311.993 173.213H311.963Z" fill="#EDE8D8"/>
<path d="M245.004 171.225C245.004 171.225 245.034 173.361 250.67 184.695C257.434 198.343 267.581 202.556 267.581 202.556L268.055 161.82C268.055 161.82 262.953 161.939 254.913 164.312C246.873 166.686 245.004 171.225 245.004 171.225Z" fill="#EDE8D8"/>
<path d="M242.453 177.308C245.361 179.058 248.595 180.245 251.888 180.986C253.549 181.342 255.24 181.609 256.931 181.728C257.791 181.787 259.809 182.173 260.995 181.995L264.229 174.252L269.362 162.058L270.133 166.538C270.281 167.398 270.608 168.466 270.993 169.416C271.379 170.365 271.854 171.314 272.358 172.204C276.363 178.999 284.136 182.885 291.523 184.843C297.338 186.386 303.805 187.128 309.916 186.772L303.182 170.187L325.551 175.972L339.999 179.8C337.002 175.231 334.006 170.632 331.039 166.063C330.772 165.648 330.476 165.203 330.238 164.758C330.268 164.817 335.341 161.168 335.786 160.812C337.537 159.358 339.139 157.726 340.503 155.916C343.707 151.644 345.191 146.956 344.301 141.616C344.034 140.073 343.648 138.53 343.114 137.017C342.61 135.504 342.016 134.021 341.275 132.597C341.393 132.745 341.482 132.923 341.571 133.071C341.453 132.864 341.304 132.626 341.186 132.448C334.896 128.799 321.042 122.035 297.397 116.665C263.28 108.921 232.218 124.556 232.218 124.556L223.882 145.384L236.164 142.18C234.414 143.426 232.159 147.49 232.693 160.337C232.812 162.77 233.168 165.292 233.702 167.843C234.473 169.416 235.63 171.314 237.202 173.124C238.715 174.786 240.525 176.15 242.453 177.278" fill="#C1592B"/>
<path d="M261.529 125.446C261.559 126.425 260.817 127.256 259.838 127.285C258.859 127.315 258.029 126.573 257.999 125.594C257.969 124.615 258.711 123.784 259.69 123.755C260.669 123.725 261.5 124.467 261.529 125.446Z" fill="#A02C36"/>
<path d="M253.578 127.552C253.608 128.294 253.044 128.917 252.302 128.947C251.561 128.976 250.938 128.413 250.908 127.671C250.878 126.929 251.442 126.306 252.184 126.276C252.925 126.247 253.548 126.81 253.578 127.552Z" fill="#A02C36"/>
<path d="M258.176 132.952C258.176 133.427 257.82 133.842 257.316 133.872C256.811 133.901 256.426 133.516 256.396 133.011C256.366 132.507 256.752 132.121 257.256 132.091C257.761 132.062 258.146 132.447 258.176 132.952Z" fill="#A02C36"/>
<path d="M237.202 173.124C237.202 173.124 240.584 177.544 247.704 180.244C254.824 182.944 261.707 182.707 261.707 182.707L268.887 166.685C268.887 166.685 270.133 177.782 284.076 184.042C298.02 190.302 312.646 188.403 312.646 188.403L306.416 172.946L343.826 182.499L332.196 165.261C332.196 165.261 339.405 161.671 343.826 152.593C348.246 143.544 341.274 132.566 341.274 132.566" fill="#C1592B"/>
<path d="M345.19 181.579C341.541 176.239 337.833 170.958 334.095 165.647C342.016 160.277 347.771 151.08 345.249 141.348C344.419 138.174 343.024 135.207 341.215 132.566C341.956 133.991 342.55 135.474 343.054 136.987C343.558 138.5 343.974 140.013 344.241 141.586C345.131 146.926 343.677 151.614 340.443 155.886C339.079 157.696 337.477 159.328 335.726 160.781C335.281 161.167 330.208 164.787 330.179 164.727C330.386 165.172 330.683 165.588 330.98 166.033C333.976 170.602 336.943 175.2 339.939 179.769L325.491 175.942L303.122 170.157L309.857 186.742C303.745 187.127 297.307 186.356 291.463 184.813C284.076 182.885 276.303 178.968 272.298 172.174C271.764 171.284 271.319 170.335 270.933 169.385C270.548 168.436 270.221 167.398 270.073 166.507L269.302 162.027L264.169 174.221L260.936 181.965C259.719 182.143 257.732 181.757 256.871 181.698C255.18 181.55 253.489 181.312 251.828 180.956C248.505 180.244 245.301 179.028 242.394 177.277C240.465 176.12 238.656 174.785 237.143 173.094C238.537 174.904 240.258 176.417 242.097 177.722C247.615 181.668 254.943 183.508 261.648 183.567H262.182L262.449 183.033L266.216 175.111L268.441 170.453C268.827 171.521 269.302 172.56 269.865 173.569C270.993 175.645 272.446 177.515 274.078 179.206C283.512 188.759 299.918 191.637 312.794 190.242L315.226 189.975L314.307 187.691L309.501 175.705L324.572 179.502L343.321 184.101L347.593 185.169L345.131 181.549L345.19 181.579Z" fill="#A02C36"/>
<path d="M331.988 137.403C332.018 138.382 331.276 139.213 330.297 139.242C329.318 139.272 328.488 138.53 328.458 137.551C328.428 136.572 329.17 135.741 330.149 135.712C331.128 135.682 331.959 136.424 331.988 137.403Z" fill="#A02C36"/>
<path d="M324.008 139.509C324.038 140.251 323.474 140.874 322.732 140.904C321.991 140.933 321.368 140.37 321.338 139.628C321.308 138.886 321.872 138.263 322.614 138.234C323.355 138.204 323.978 138.768 324.008 139.509Z" fill="#A02C36"/>
<path d="M328.606 144.88C328.606 145.354 328.25 145.77 327.745 145.799C327.241 145.829 326.856 145.443 326.826 144.939C326.796 144.435 327.182 144.049 327.686 144.019C328.191 143.99 328.576 144.375 328.606 144.88Z" fill="#A02C36"/>
<path d="M276.778 189.975C276.778 189.975 277.164 190.301 277.846 190.717C280.071 192.141 282.534 193.15 284.996 194.069C287.874 195.137 290.811 196.087 293.777 196.858C296.714 197.63 299.77 198.431 302.796 198.549C303.627 198.579 304.102 198.549 304.102 198.549C304.102 198.549 303.746 198.905 302.944 199.291C299.503 201.041 294.934 200.863 291.256 200.062C287.043 199.143 282.504 197.184 279.418 194.099C278.35 193.031 277.638 191.992 277.223 191.221C276.808 190.45 276.719 189.945 276.719 189.945" fill="#A02C36"/>
<path d="M305.97 104.708C306.771 114.884 301.253 123.607 293.628 124.2C286.004 124.794 279.18 117.05 278.35 106.874C277.549 96.6975 283.067 87.9749 290.691 87.3816C298.316 86.7882 305.139 94.5317 305.97 104.708Z" fill="#A02C36"/>
<path d="M322.999 112.837C319.261 120.937 311.28 125.239 305.198 122.42C299.117 119.602 295.735 108.298 299.473 100.198C303.211 92.0987 312.704 90.2592 318.786 93.0777C324.868 95.8963 326.766 104.738 322.999 112.837Z" fill="#A02C36"/>
<path d="M303.181 105.479C303.804 113.43 299.473 120.254 293.51 120.729C287.547 121.204 282.206 115.151 281.554 107.17C280.931 99.2192 285.262 92.3954 291.225 91.9207C297.188 91.446 302.528 97.4984 303.151 105.479" fill="#EDE8D8"/>
<path d="M317.837 112.51C314.722 119.244 308.106 122.805 303.033 120.49C297.989 118.147 296.417 110.789 299.532 104.054C302.647 97.3192 309.263 93.7589 314.336 96.0731C319.379 98.4169 320.952 105.775 317.837 112.51Z" fill="#EDE8D8"/>
<path d="M299.087 106.427C299.265 110.432 296.921 113.785 293.866 113.904C290.81 114.022 288.199 110.907 288.021 106.902C287.843 102.896 290.187 99.5438 293.243 99.4252C296.298 99.3065 298.909 102.422 299.087 106.427Z" fill="#26221D"/>
<path d="M311.755 109.424C311.903 112.717 309.975 115.476 307.483 115.565C304.991 115.654 302.825 113.103 302.677 109.809C302.529 106.516 304.457 103.757 306.949 103.668C309.471 103.549 311.607 106.131 311.755 109.424Z" fill="#26221D"/>
<path d="M306.978 84.0879C313.594 84.5033 319.706 87.8855 326.381 91.4457C325.965 92.8105 326.292 92.6325 325.787 93.9676C319.528 90.4963 313.031 88.6569 306.83 88.1822C306.919 86.8471 306.978 85.4823 306.949 84.0879" fill="#751A14"/>
<path d="M297.693 136.067C308.225 135.622 317.036 130.311 320.418 123.191C314.099 120.966 306.445 118.681 297.367 116.634C288.585 114.646 280.041 114.201 272.15 114.646C271.912 115.803 271.794 117.02 271.853 118.236C272.298 128.68 283.868 136.66 297.693 136.067Z" fill="#26221D"/>
<path d="M276.867 120.52C275.146 120.579 273.692 121.499 272.772 122.805C273.929 125.831 276.036 128.501 278.854 130.667C280.931 129.895 282.414 127.878 282.296 125.534C282.177 122.627 279.715 120.401 276.837 120.52" fill="#52697E"/>
<path d="M303.24 126.485C298.939 126.663 295.616 130.282 295.794 134.584C295.794 135.089 295.883 135.593 296.002 136.097C296.565 136.097 297.129 136.097 297.693 136.097C302.706 135.89 307.305 134.554 311.132 132.478C310.301 128.917 307.038 126.336 303.24 126.485Z" fill="#52697E"/>
<path d="M242.364 105.984C242.423 107.319 243.551 108.387 244.915 108.328C246.28 108.268 247.289 107.141 247.259 105.776C247.229 104.411 246.072 103.403 244.708 103.432C243.343 103.462 242.334 104.619 242.364 105.984Z" fill="#D0EBF9"/>
<path d="M247.734 74.4158C247.734 74.4158 248.001 66.613 244.737 62.9934C242.275 60.2935 239.931 59.7001 238.537 60.5902C237.113 61.4803 240.258 66.6426 240.258 66.6426C240.258 66.6426 235.956 64.2988 234.828 66.4053C233.701 68.5118 237.884 70.1732 237.884 70.1732C237.884 70.1732 232.307 70.1732 232.574 72.784C232.841 75.3652 236.935 74.9795 236.935 74.9795C236.935 74.9795 232.633 76.1663 232.959 78.5101C233.286 80.854 239.427 81.4473 239.635 81.2693C239.872 81.121 247.467 74.8312 247.734 74.4158Z" fill="#872A8D"/>
<path d="M235.155 94.2333C235.155 94.2333 236.283 71.685 246.992 71.24C257.702 70.795 256.99 96.9628 256.99 96.9628L252.807 97.1408C252.807 97.1408 251.443 107.911 244.115 107.703C236.787 107.495 235.155 94.2333 235.155 94.2333Z" fill="#2CB14B"/>
<path d="M246.962 71.2408C246.962 71.2408 246.784 71.2408 246.695 71.2408L248.208 106.398C251.976 103.58 252.777 97.1416 252.777 97.1416L256.96 96.9636C256.96 96.9636 257.672 70.7661 246.962 71.2408Z" fill="#3D505A"/>
<path d="M246.191 95.0352C246.191 95.0352 246.903 95.2132 247.942 95.4802C248.95 95.7175 250.226 96.0142 251.472 96.1626C252.125 96.2219 252.689 96.2516 253.401 96.3109C254.053 96.3703 254.676 96.4296 255.21 96.5483C256.278 96.7263 256.99 97.023 256.99 97.023C256.99 97.023 256.308 97.379 255.27 97.646C254.736 97.7944 254.142 97.913 253.49 98.0317C252.867 98.1504 252.036 98.18 251.264 98.1207C250.493 98.0317 249.751 97.824 249.099 97.5273C248.446 97.2306 247.882 96.8746 247.437 96.5186C246.547 95.8065 246.191 95.0945 246.191 95.0945" fill="#26221D"/>
<path d="M246.251 85.8964C246.399 89.071 245.005 91.6818 243.195 91.7708C241.385 91.8598 239.783 89.338 239.635 86.1931C239.487 83.0185 240.881 80.4077 242.691 80.3187C244.5 80.2297 246.102 82.7515 246.251 85.8964Z" fill="#EDE8D8"/>
<path d="M246.488 87.4986C246.547 89.1304 245.717 90.4655 244.619 90.5248C243.521 90.5842 242.572 89.3084 242.513 87.6766C242.453 86.0449 243.284 84.7098 244.382 84.6504C245.479 84.5911 246.429 85.8668 246.488 87.4986Z" fill="#26221D"/>
<path d="M242.512 105.33L235.926 113.578L241.889 114.943L242.512 105.33Z" fill="#2CB14B"/>
<path d="M244.352 107.021L246.547 113.993L251.412 110.7L244.352 107.021Z" fill="#2CB14B"/>
<path d="M236.104 92.336C236.104 92.336 235.57 88.2417 233.316 83.643C231.061 79.0147 227.501 78.1543 227.501 78.1543C227.501 78.1543 225.335 82.8123 227.293 86.9956C229.251 91.1789 233.85 92.3063 233.85 92.3063C233.85 92.3063 231.684 93.582 230.2 96.7269C228.717 99.8718 228.865 106.785 228.865 106.785C228.865 106.785 230.942 106.251 233.731 102.75C236.52 99.2488 236.104 92.336 236.104 92.336Z" fill="#872A8D"/>
<path d="M339.583 59.8488C339.701 62.3707 337.743 64.5068 335.222 64.5958C332.7 64.6849 330.564 62.7564 330.475 60.2345C330.356 57.7127 332.314 55.6062 334.836 55.4875C337.358 55.3689 339.494 57.327 339.583 59.8488Z" fill="#D0EBF9"/>
<path d="M196.261 231.156C193.057 235.636 206.882 248.987 204.331 253.704C179.766 298.771 179.855 347.398 179.855 347.398C269.094 377.571 352.755 379.678 415.561 328.41C415.561 328.41 417.637 288.535 408.144 231.69C303.686 258.451 236.134 247.503 196.261 231.156Z" fill="#C1592B"/>
<path d="M304.576 251.924C277.431 253.081 257.851 248.453 257.613 248.393L257.88 244.774C258.236 244.863 294.252 253.318 338.99 243.32L339.465 247.681C326.471 250.589 315.523 251.479 304.606 251.954L304.576 251.924Z" fill="#EC9F21"/>
<path d="M392.391 126.84C392.45 128.175 391.412 129.332 390.047 129.392C388.682 129.451 387.555 128.413 387.496 127.048C387.436 125.683 388.475 124.556 389.839 124.496C391.204 124.437 392.331 125.475 392.391 126.84Z" fill="#D0EBF9"/>
<path d="M402.388 101.828C402.507 104.855 400.163 107.406 397.137 107.525C394.111 107.644 391.56 105.3 391.412 102.273C391.293 99.2472 393.637 96.6957 396.663 96.5474C399.689 96.399 402.24 98.7725 402.388 101.799" fill="#D0EBF9"/>
<path d="M346.553 227.832L346.495 227.978C346.495 227.978 346.29 227.978 346.553 227.832Z" fill="#929E2F"/>
<path d="M426.508 366.445L426.537 366.504C426.537 366.504 426.537 366.445 426.508 366.445Z" fill="#695752"/>
<path d="M426.122 365.613C426.122 365.613 426.181 365.732 426.211 365.791C426.211 365.732 426.152 365.672 426.122 365.613Z" fill="#695752"/>
<path d="M426.389 366.178C426.389 366.178 426.447 366.295 426.477 366.324C426.477 366.295 426.418 366.236 426.389 366.178Z" fill="#695752"/>
<path d="M422.324 355.705C422.384 355.883 422.443 356.091 422.502 356.269C422.443 356.091 422.384 355.913 422.324 355.705Z" fill="#695752"/>
<path d="M423.57 359.531C423.57 359.531 423.6 359.65 423.63 359.709C423.63 359.65 423.6 359.59 423.57 359.531Z" fill="#695752"/>
<path d="M424.342 361.58C424.342 361.58 424.342 361.609 424.342 361.638C424.342 361.638 424.342 361.609 424.342 361.58Z" fill="#695752"/>
<path d="M425.351 363.982C425.351 363.982 425.38 364.07 425.41 364.1C425.41 364.07 425.38 364.012 425.351 363.982Z" fill="#695752"/>
<path d="M307.958 314.019C315.434 323.691 317.095 336.953 316.947 348.88C313.624 337.487 312.26 325.115 307.958 314.019Z" fill="#5E1019"/>
<path d="M303.152 323.691C284.58 329.269 264.555 329.595 245.509 326.48C264.525 326.154 284.254 325.857 303.152 323.691Z" fill="#5E1019"/>
<path d="M301.016 327.045C289.416 334.551 274.76 335.945 261.262 335.589C274.701 333.305 288.318 332.118 301.016 327.045Z" fill="#5E1019"/>
<path d="M298.198 239.017C297.664 242.369 294.637 244.654 291.433 244.149C288.259 243.645 286.123 240.5 286.657 237.148C287.221 233.795 290.217 231.51 293.421 232.015C296.595 232.549 298.732 235.664 298.198 239.017Z" fill="#EC9F21"/>
<path d="M259.156 231.631C258.622 234.924 255.625 237.208 252.51 236.674C249.365 236.17 247.259 233.055 247.823 229.762C248.357 226.468 251.353 224.184 254.468 224.718C257.613 225.222 259.719 228.337 259.156 231.631Z" fill="#EC9F21"/>
<path d="M340.799 236.762C340.265 240.085 337.239 242.37 334.094 241.865C330.949 241.361 328.813 238.246 329.347 234.893C329.881 231.57 332.908 229.286 336.052 229.79C339.197 230.295 341.333 233.41 340.769 236.762H340.799Z" fill="#EC9F21"/>
<path d="M266.899 247.741C256.783 241.926 245.331 240.116 233.82 239.671C245.064 236.467 258.8 238.899 266.899 247.741Z" fill="#A48B7F"/>
<path d="M322.079 250.915C322.139 252.576 320.774 253.97 318.994 254.03C317.214 254.089 315.731 252.843 315.642 251.182C315.553 249.52 316.947 248.126 318.727 248.066C320.507 248.007 321.99 249.253 322.079 250.915Z" fill="#A48B7F"/>
<path d="M263.072 252.458C262.686 254.06 260.966 255.009 259.245 254.594C257.524 254.179 256.427 252.517 256.842 250.915C257.228 249.313 258.948 248.364 260.669 248.779C262.39 249.194 263.487 250.856 263.072 252.458Z" fill="#A48B7F"/>
<path d="M320.804 251.566C320.092 266.638 323.177 281.888 328.695 295.951C325.313 289.097 322.554 281.888 320.566 274.411C318.579 266.846 317.244 259.28 317.036 251.388L320.804 251.566Z" fill="#A48B7F"/>
<path d="M261.618 253.614C258.295 267.677 252.925 282.156 241.978 292.065C251.768 281.562 255.833 266.936 257.88 253.051L261.618 253.614Z" fill="#A48B7F"/>
<path d="M365.215 246.109C350.263 241.421 334.51 241.332 319.083 243.557C333.709 237.801 351.45 238.098 365.215 246.109Z" fill="#A48B7F"/>
<path d="M277.223 79.3105C284.224 77.4117 292.086 76.937 300.274 78.2424C300.334 79.8149 300.215 79.8149 300.155 81.3577C292.442 79.9632 285.114 81.862 278.528 83.5828C278.142 82.1587 277.727 80.7346 277.223 79.2808V79.3105Z" fill="#751B15"/>
<path d="M234.325 254.504C247.823 260.675 287.815 270.762 315.405 270.228C379.397 269.012 424.55 235.308 443.181 214.332C428.852 212.166 409.034 207.775 409.034 207.775L402.834 220.355C402.834 220.355 402.626 222.402 402.3 225.517C377.053 234.181 347.446 239.551 322.673 246.048L290.9 245.455L207.802 214.214L201.899 216.379L192.109 223.856C194.749 231.451 202.284 239.907 234.325 254.533V254.504Z" fill="#BA4848"/>
<path d="M297.546 367.868L300.483 377.332L433.688 363.507C432.146 358.077 430.721 352.529 429.357 346.922C387.081 358.819 350.739 367.868 297.546 367.868Z" fill="#E8DFD3"/>
<path d="M178.996 377.361L215.902 377.806L223.585 362.141C205.874 359.441 190.151 356.148 178.165 353.359C178.195 362.112 178.551 370.3 178.966 377.332L178.996 377.361Z" fill="#E8DFD3"/>
<path d="M272.804 343.065C320.716 344.252 374.947 340.988 424.076 322.03C422.504 313.366 421.198 304.852 420.249 296.752C381.118 313.307 337.656 325.738 262.598 316.778C242.098 314.316 199.615 302.745 183.446 298.235C181.488 306.543 180.183 315.265 179.382 324.018C200.208 331.138 237.529 342.204 272.804 343.095V343.065Z" fill="#E8DFD3"/>
<path d="M278.885 293.043C324.305 299.748 375.095 287.376 418.379 273.966C419.032 274.767 419.714 275.568 420.367 276.399C420.367 276.399 439.532 262.158 450.301 238.304C450.301 238.304 454.217 226.14 456.946 216.617C450.865 215.192 449.204 215.252 443.181 214.332C424.55 235.308 374.531 270.673 310.569 268.745C264.852 267.38 248.061 260.081 234.325 254.504C209.167 244.327 196.677 229.166 193.295 222.61C193.295 222.61 183.653 231.332 178.817 233.617C178.906 249.222 179.322 263.078 187.421 283.965C190.684 277.052 192.197 271.088 194.541 269.546C194.541 269.546 252.095 289.068 278.914 293.043H278.885Z" fill="#E8DFD3"/>
<path d="M236.639 364.012L235.097 377.511L284.077 377.333L290.01 367.809C284.403 367.72 278.648 367.542 272.626 367.246C260.314 366.652 248.15 365.495 236.61 364.012H236.639Z" fill="#E8DFD3"/>
<path d="M222.636 374.81L232.041 363.387C229.756 363.061 227.502 362.764 225.276 362.408L222.606 374.78L222.636 374.81Z" fill="#E8DFD3"/>
<path d="M424.076 322.03C374.947 341.018 328.399 344.43 280.486 343.213C245.212 342.323 200.178 331.108 179.381 323.988C178.461 334.016 178.135 344.044 178.194 353.39C190.18 356.178 205.903 359.442 223.615 362.171L226.7 355.882L225.306 362.409C227.531 362.735 229.785 363.062 232.07 363.388L237.469 356.831L236.668 363.981C248.209 365.465 260.342 366.622 272.684 367.215C278.677 367.512 284.462 367.69 290.069 367.779L295.083 359.739L297.604 367.838C350.797 367.838 387.14 358.789 429.415 346.892C427.428 338.614 425.648 330.248 424.164 322L424.076 322.03Z" fill="#BA4848"/>
<path d="M262.597 316.779C335.074 324.226 382.007 320.25 421.138 303.695C420.159 295.566 418.646 280.938 418.379 273.966C375.095 287.376 317.155 297.999 271.972 289.84C213.617 279.278 194.511 269.576 194.511 269.576C189.498 277.854 185.937 287.704 183.445 298.236C199.614 302.746 242.038 314.673 262.597 316.779Z" fill="#BA4848"/>
<path d="M228.718 195.315L206.408 212.523C206.408 212.523 249.693 255.008 307.543 251.567C393.252 246.493 433.243 206.915 433.243 206.915L400.461 195.463C400.461 195.463 391.798 221.483 321.962 225.34C266.662 228.395 228.718 195.285 228.718 195.285V195.315Z" fill="#6B7582"/>
<path d="M308.226 239.225C307.721 242.578 304.725 244.892 301.521 244.417C298.347 243.943 296.181 240.798 296.685 237.445C297.19 234.093 300.186 231.778 303.39 232.253C306.564 232.757 308.73 235.873 308.226 239.225Z" fill="#B5AEA8"/>
<path d="M267.907 231.985C267.403 235.308 264.436 237.592 261.292 237.088C258.147 236.613 256.011 233.528 256.515 230.235C257.019 226.941 259.986 224.627 263.131 225.132C266.276 225.606 268.412 228.692 267.878 231.985H267.907Z" fill="#B5AEA8"/>
<path d="M233.761 214.837C233.256 218.16 230.29 220.444 227.145 219.94C224 219.465 221.864 216.379 222.369 213.086C222.873 209.793 225.84 207.479 228.984 207.983C232.129 208.458 234.265 211.543 233.731 214.837H233.761Z" fill="#B5AEA8"/>
<path d="M349.433 235.725C348.929 239.047 345.933 241.362 342.788 240.887C339.614 240.412 337.478 237.297 337.982 233.974C338.486 230.651 341.483 228.337 344.627 228.812C347.772 229.286 349.938 232.402 349.433 235.725Z" fill="#B5AEA8"/>
<path d="M381.147 227.06C380.643 230.383 377.647 232.698 374.502 232.223C371.327 231.748 369.191 228.633 369.696 225.31C370.2 221.987 373.196 219.673 376.341 220.148C379.486 220.622 381.652 223.738 381.147 227.06Z" fill="#B5AEA8"/>
<path d="M411.675 212.82C411.17 216.143 408.174 218.457 405.029 217.983C401.855 217.508 399.719 214.393 400.223 211.07C400.727 207.747 403.724 205.433 406.869 205.907C410.013 206.382 412.179 209.497 411.675 212.82Z" fill="#B5AEA8"/>
<path d="M201.898 216.35L206.408 212.523C206.408 212.523 263.725 266.252 339.049 246.819C369.191 239.046 397.939 229.256 411.704 220.681C428.852 210.001 430.395 205.906 430.395 205.906L439.235 208.576C439.235 208.576 390.077 248.748 322.288 255.601C247.319 263.167 201.898 216.35 201.898 216.35Z" fill="#B5AEA8"/>
<path d="M179.262 327.696C179.262 327.696 247.318 360.836 361.062 344.37C385.626 340.81 410.428 331.998 425.44 325.59C425.44 325.59 434.369 332.592 426.982 336.567C426.982 336.567 418.972 339.386 398.591 345.082C354.951 357.246 267.284 368.669 178.431 338.792C178.431 338.792 169.145 332.117 179.292 327.696H179.262Z" fill="#EAD28E"/>
<path d="M164.607 245.07C164.607 245.07 163.123 256.196 164.636 259.964H167.751C169.353 253.022 167.959 253.971 167.751 243.498L164.636 245.07H164.607Z" fill="#E8DFD3"/>
<path d="M164.992 266.817L166.149 272.157L168.997 271.416C168.997 271.416 169.531 268.449 168.849 264.117L165.022 266.817H164.992Z" fill="#E8DFD3"/>
<path d="M167.544 280.376C167.128 288.446 181.814 306.039 181.814 306.039L183.445 298.266C183.445 298.266 170.6 279.99 169.917 275.629L167.544 280.376Z" fill="#E8DFD3"/>
<path d="M189.913 278.417C181.814 257.53 182.644 246.908 182.555 231.303C178.817 233.647 172.914 235.723 168.404 237.325C168.404 238.868 168.493 238.542 168.493 240.559L173.181 240.411L167.722 243.526C166.891 251.359 166.98 256.224 167.722 259.963L172.291 260.259L168.019 264.739C168.286 266.935 168.642 269.219 168.938 271.415L171.757 271.563L169.858 275.598C170.985 283.164 178.016 296.04 182.555 301.173C184.247 298.888 185.938 288.771 185.938 288.771C186.887 286.576 188.281 280.345 189.824 278.417H189.913Z" fill="#BA4848"/>
<path d="M164.874 238.78L168.464 240.531C168.464 238.484 168.375 238.81 168.375 237.297C164.993 238.276 164.874 238.78 164.874 238.78Z" fill="#E8DFD3"/>
<path d="M434.043 294.736C443.804 281.652 451.873 267.796 458.192 255.425L453.505 251.627C446.533 264.503 438.048 276.638 429.415 288.327C431.136 290.671 432.738 292.867 434.073 294.736H434.043Z" fill="#E8DFD3"/>
<path d="M454.692 249.342C459.735 239.73 463.889 229.701 466.648 219.169C463.266 218.19 459.676 217.211 456.976 216.588C450.331 238.276 418.409 273.967 418.409 273.967C422.118 278.536 426.004 283.699 429.386 288.327C438.049 276.637 446.504 264.503 453.476 251.627L448.729 247.799L454.662 249.372L454.692 249.342Z" fill="#BA4848"/>
<path d="M454.691 249.343L460.476 250.856C466.855 237.861 471.186 226.973 473.352 221.128C471.513 220.564 469.139 219.882 466.647 219.17C463.888 229.702 459.735 239.73 454.691 249.343Z" fill="#E8DFD3"/>
<path d="M196.47 329.863C196.47 329.863 185.048 326.333 178.728 336.213C178.728 336.213 175.05 341.583 176.771 345.143C178.492 348.673 181.903 347.398 184.811 347.546C187.718 347.694 199.585 343.392 199.436 337.014C199.258 330.635 196.47 329.834 196.47 329.834V329.863Z" fill="#EAD28E"/>
<path d="M182.259 334.848C182.259 334.848 159.831 342.413 157.19 351.314L163.154 358.909C163.154 358.909 177.631 339.12 183.03 339.387C188.43 339.684 182.229 334.848 182.229 334.848H182.259Z" fill="#EAD28E"/>
<path d="M181.339 338.498C181.339 338.498 167.01 365.526 173.181 369.65C179.352 373.774 180.835 371.727 180.835 371.727C180.835 371.727 183.535 344.669 185.938 339.358C188.341 334.047 181.31 338.498 181.31 338.498H181.339Z" fill="#EAD28E"/>
<path d="M192.286 339.476C192.286 339.476 185.196 337.132 182.2 339.387C180.182 340.9 179.233 342.205 178.788 343.986C178.788 343.986 177.66 342.413 180.924 338.942C183.831 335.827 190.951 338.319 192.257 339.476H192.286Z" fill="#AE9453"/>
<path d="M176.355 343.511C176.355 343.511 175.673 333.572 185.641 330.368C186.235 330.19 174.813 331.495 176.355 343.511Z" fill="#AE9453"/>
<path d="M204.331 253.703C204.331 253.703 187.391 283.995 182.081 304.585C182.081 304.585 185.374 273.789 204.331 253.703Z" fill="#8C4142"/>
<path opacity="0.2" d="M426.448 121.945C429.889 186.029 379.722 233.914 315.641 237.356C251.56 240.798 197.863 198.52 194.392 134.435C190.951 70.3507 240.109 15.6119 304.19 12.1703C368.271 8.72874 423.007 57.8602 426.448 121.945Z" fill="#56C8F3"/>
</g>
</g>
<defs>
<filter id="filter0_d_4062_16748" x="0" y="-6.00781" width="547" height="550" filterUnits="userSpaceOnUse" color-interpolation-filters="sRGB">
<feFlood flood-opacity="0" result="BackgroundImageFix"/>
<feColorMatrix in="SourceAlpha" type="matrix" values="0 0 0 0 0 0 0 0 0 0 0 0 0 0 0 0 0 0 127 0" result="hardAlpha"/>
<feMorphology radius="12" operator="erode" in="SourceAlpha" result="effect1_dropShadow_4062_16748"/>
<feOffset dy="24"/>
<feGaussianBlur stdDeviation="24"/>
<feColorMatrix type="matrix" values="0 0 0 0 0.172549 0 0 0 0 0.168627 0 0 0 0 0.184314 0 0 0 0.18 0"/>
<feBlend mode="normal" in2="BackgroundImageFix" result="effect1_dropShadow_4062_16748"/>
<feBlend mode="normal" in="SourceGraphic" in2="effect1_dropShadow_4062_16748" result="shape"/>
</filter>
<clipPath id="clip0_4062_16748">
<rect width="475" height="478" fill="white" transform="translate(36 5.99219)"/>
</clipPath>
</defs>
</svg>
