<svg width="71" height="71" viewBox="0 0 71 71" fill="none" xmlns="http://www.w3.org/2000/svg">
<g filter="url(#filter0_d_4149_10587)">
<path d="M35.1052 61.0527C51.1215 61.0527 64.1052 48.069 64.1052 32.0527C64.1052 16.0365 51.1215 3.05273 35.1052 3.05273C19.089 3.05273 6.10522 16.0365 6.10522 32.0527C6.10522 48.069 19.089 61.0527 35.1052 61.0527Z" fill="#6F6F72"/>
</g>
<path d="M35.1051 57.2376C49.014 57.2376 60.2893 45.9622 60.2893 32.0534C60.2893 18.1445 49.014 6.86914 35.1051 6.86914C21.1963 6.86914 9.9209 18.1445 9.9209 32.0534C9.9209 45.9622 21.1963 57.2376 35.1051 57.2376Z" fill="#A9AAAD"/>
<path d="M45.2553 23.8283L41.9279 24.103L42.1874 14.0904C42.1874 14.0904 32.0984 3.11614 25.7947 13.9072L25.9626 25.4309L22.0247 25.7667L21.3684 47.8677L50.4905 46.2804L45.2705 23.8283H45.2553ZM30.1905 19.0967C30.1905 19.0967 32.3731 13.8461 37.8984 17.6467L38.8447 24.3472L30.0379 25.0798L30.2058 19.0814L30.1905 19.0967ZM33.0447 42.9225L33.1363 36.4051C32.0068 35.8251 31.3047 34.6193 31.4574 33.3067C31.6558 31.5972 33.2126 30.3761 34.9526 30.5746C36.6926 30.773 37.9442 32.3146 37.7458 34.024C37.6542 34.7719 37.3031 35.413 36.7995 35.8861L38.9363 41.7472L33.0447 42.9225Z" fill="white"/>
<defs>
<filter id="filter0_d_4149_10587" x="-3.86238e-05" y="0.000102758" width="70.2105" height="70.2105" filterUnits="userSpaceOnUse" color-interpolation-filters="sRGB">
<feFlood flood-opacity="0" result="BackgroundImageFix"/>
<feColorMatrix in="SourceAlpha" type="matrix" values="0 0 0 0 0 0 0 0 0 0 0 0 0 0 0 0 0 0 127 0" result="hardAlpha"/>
<feOffset dy="3.05263"/>
<feGaussianBlur stdDeviation="3.05263"/>
<feComposite in2="hardAlpha" operator="out"/>
<feColorMatrix type="matrix" values="0 0 0 0 0 0 0 0 0 0 0 0 0 0 0 0 0 0 0.25 0"/>
<feBlend mode="normal" in2="BackgroundImageFix" result="effect1_dropShadow_4149_10587"/>
<feBlend mode="normal" in="SourceGraphic" in2="effect1_dropShadow_4149_10587" result="shape"/>
</filter>
</defs>
</svg>
