<svg width="241" height="247" viewBox="0 0 241 247" fill="none" xmlns="http://www.w3.org/2000/svg">
<path d="M108.29 196.815C108.29 196.815 106.527 232.09 103.347 232.815C100.135 233.54 96.546 221.75 89.8081 220.048C83.0702 218.377 76.7101 225.438 77.8435 229.19C79.0085 232.941 84.8648 229.883 84.8648 229.883C84.8648 229.883 80.079 234.454 81.3384 239.75C82.6294 245.046 93.9957 235.526 93.9957 235.526C93.9957 235.526 88.895 245.33 93.9957 246.811C99.0963 248.293 101.017 240.475 101.017 240.475C101.017 240.475 103.032 242.934 110.148 244.006C117.295 245.078 122.805 244.006 122.805 244.006L119.94 196.531L108.227 196.815H108.29Z" fill="#45B6E8"/>
<path d="M144.215 196.815C144.215 196.815 145.978 232.09 149.159 232.815C152.37 233.54 155.959 221.75 162.697 220.048C169.435 218.377 175.795 225.438 174.662 229.19C173.497 232.941 167.641 229.883 167.641 229.883C167.641 229.883 172.426 234.454 171.167 239.75C169.876 245.046 158.51 235.526 158.51 235.526C158.51 235.526 163.61 245.33 158.51 246.811C153.409 248.293 151.488 240.475 151.488 240.475C151.488 240.475 149.473 242.934 142.358 244.006C135.21 245.078 129.7 244.006 129.7 244.006L129.512 197.319L144.278 196.815H144.215Z" fill="#45B6E8"/>
<path d="M48.3415 181.431C46.8617 181.714 49.8213 191.455 49.8213 191.455L64.84 192.937C64.84 192.937 49.8213 181.147 48.3415 181.431Z" fill="#0077B4"/>
<path d="M48.6879 207.5C47.2081 206.144 53.3478 194.102 53.3478 194.102L75.4507 206.712C75.4507 206.712 50.1362 208.855 48.6564 207.5H48.6879Z" fill="#0077B4"/>
<path d="M97.2701 172.856C97.2701 172.856 88.5486 184.362 71.9872 188.145C31.78 197.35 16.0057 161.318 13.5813 161.696C11.157 162.043 11.8496 176.229 17.7689 184.173C23.6567 192.117 34.5822 194.985 34.5822 194.985C34.5822 194.985 33.0395 197.35 31.7485 202.709C30.4261 208.099 32.9765 214.908 34.5193 215.728C36.0621 216.548 48.5304 197.602 48.5304 197.602C48.5304 197.602 69.5313 215.917 88.1708 212.985C106.81 210.085 112.604 198.106 112.604 198.106L97.3331 172.887L97.2701 172.856Z" fill="#45B6E8"/>
<path d="M189.995 127.18C189.995 127.18 187.791 141.145 185.839 143.824C183.887 146.504 176.803 142.595 176.803 142.595L189.995 127.18Z" fill="#0077B4"/>
<path d="M150.292 137.677C150.292 137.677 163.516 143.982 171.324 139.852C179.133 135.722 184.832 123.995 185.682 120.465C186.5 116.934 195.694 105.775 199.473 106.279C203.251 106.783 194.592 116.146 194.592 116.146C194.592 116.146 207.312 116.02 207.942 119.897C208.572 123.775 195.694 119.393 195.694 119.393C195.694 119.393 208.226 128.377 206.21 131.53C204.195 134.714 195.757 123.05 195.757 123.05C195.757 123.05 200.858 133.263 198.591 135.06C196.355 136.857 192.168 125.351 192.168 125.351C192.168 125.351 187.728 141.397 175.197 146.031C162.666 150.665 149.568 140.073 149.568 140.073L150.292 137.677Z" fill="#45B6E8"/>
<path d="M45.6024 154.951C45.6024 154.951 49.727 168.475 52.0255 170.871C54.3239 173.267 60.81 168.38 60.81 168.38L45.5709 154.951H45.6024Z" fill="#0077B4"/>
<path d="M86.3762 159.806C86.3762 159.806 74.1598 167.907 65.8476 164.912C57.5354 161.918 50.2622 151.105 48.9398 147.732C47.6175 144.359 36.9753 134.587 33.323 135.595C29.6707 136.636 39.5257 144.706 39.5257 144.706C39.5257 144.706 26.8999 146.345 26.8055 150.285C26.711 154.194 38.8645 148.047 38.8645 148.047C38.8645 148.047 27.7185 158.702 30.1429 161.539C32.5988 164.408 39.3367 151.704 39.3367 151.704C39.3367 151.704 35.7159 162.517 38.2033 163.998C40.6906 165.448 43.2095 153.501 43.2095 153.501C43.2095 153.501 49.8214 168.758 62.888 171.595C75.9545 174.433 87.4153 162.107 87.4153 162.107L86.3448 159.837L86.3762 159.806Z" fill="#45B6E8"/>
<path d="M47.2711 126.58C47.2711 126.58 49.4751 140.545 51.4272 143.225C53.3793 145.904 60.4636 141.996 60.4636 141.996L47.2711 126.58Z" fill="#0077B4"/>
<path d="M86.9744 137.077C86.9744 137.077 73.7505 143.382 65.942 139.252C58.1336 135.123 52.4347 123.396 51.5846 119.865C50.7345 116.335 41.5722 105.175 37.7939 105.68C34.0156 106.184 42.6742 115.547 42.6742 115.547C42.6742 115.547 29.954 115.42 29.3243 119.298C28.6946 123.175 41.5722 118.793 41.5722 118.793C41.5722 118.793 29.0409 127.778 31.056 130.93C33.0711 134.114 41.5092 122.45 41.5092 122.45C41.5092 122.45 36.4085 132.664 38.6755 134.461C40.911 136.258 45.0986 124.751 45.0986 124.751C45.0986 124.751 49.538 140.797 62.0693 145.431C74.6006 150.065 87.6986 139.473 87.6986 139.473L86.9744 137.077Z" fill="#45B6E8"/>
<path d="M107.755 92.6285C107.755 92.6285 88.4228 107.823 87.0689 111.984C85.715 116.145 100.86 129.259 100.86 129.259L107.755 92.66V92.6285Z" fill="#0077B4"/>
<path d="M143.712 139.945C143.712 139.945 143.68 139.724 143.649 139.598C137.918 108.295 139.178 91.6822 139.178 91.6822H107.283C107.283 91.6822 99.002 112.772 95.7904 134.492C95.633 135.5 95.5071 136.604 95.3811 137.738C106.496 142.688 124.033 147.227 143.712 139.945Z" fill="#45B6E8"/>
<path d="M86.0298 31.9455C89.5247 32.9227 97.8054 51.8685 126.772 56.9438C155.739 62.0192 165.751 47.7389 168.459 46.7301C171.167 45.7214 183.509 54.3589 189.555 75.1961C195.6 96.0333 184.265 106.342 180.109 106.342C175.984 106.342 173.969 97.6726 129.763 95.2137C85.589 92.7549 63.864 110.85 60.9043 110.692C57.9447 110.534 44.7837 95.2768 55.048 67.9456C65.3123 40.6145 82.472 31.0313 85.9983 31.977L86.0298 31.9455Z" fill="#45B6E8"/>
<path d="M114.965 103.946C114.965 103.946 115.059 104.324 115.28 104.923C115.406 105.207 116.224 108.958 122.836 110.471C125.355 111.039 127.685 111.07 129.574 111.102C132.534 111.165 134.455 111.039 134.455 111.039C134.455 111.039 133.132 111.795 130.897 112.331C126.394 113.466 118.428 113.466 115.437 107.792C114.902 106.688 114.808 105.679 114.808 105.017C114.808 104.324 114.934 103.977 114.934 103.977L114.965 103.946Z" fill="#0077B4"/>
<path d="M115.941 103.094C115.941 103.976 115.217 104.701 114.335 104.701C113.454 104.701 112.73 103.976 112.73 103.094C112.73 102.211 113.454 101.486 114.335 101.486C115.217 101.486 115.941 102.211 115.941 103.094Z" fill="#0077B4"/>
<path d="M120.884 122.607C125.292 122.734 127.969 121.41 131.432 120.212C131.432 120.212 131.023 120.842 130.204 121.567C128.346 123.175 125.607 124.436 122.522 123.427C121.451 123.08 120.884 122.576 120.884 122.576V122.607Z" fill="#0077B4"/>
<path d="M75.4196 34.6247C77.1828 55.4304 61.7863 73.7457 41.0058 75.5426C20.2253 77.3079 1.9322 61.8613 0.137515 41.0556C-1.62568 20.2499 13.7708 1.93454 34.5828 0.137687C55.3633 -1.62765 73.6564 13.7875 75.4511 34.5932L75.4196 34.6247Z" fill="#45B6E8"/>
<path d="M67.044 35.9495C68.5867 54.1072 56.087 69.9952 39.1477 71.4453C22.1769 72.8953 7.18979 59.3716 5.61551 41.2139C4.07272 23.0562 16.5725 7.16826 33.5118 5.71816C50.4825 4.26807 65.4697 17.7918 67.044 35.9495Z" fill="white"/>
<path d="M56.1813 40.9938C57.0944 51.8064 50.9862 61.169 42.4851 61.894C34.0154 62.6191 26.3644 54.4229 25.4513 43.6102C24.5383 32.7976 30.6465 23.435 39.1476 22.71C47.6172 21.9849 55.2367 30.1811 56.1813 40.9938Z" fill="#160D47"/>
<path d="M36.1878 32.8289C35.0543 36.6748 31.9373 39.1651 29.2295 38.3455C26.5217 37.5574 25.1994 33.7746 26.3328 29.9287C27.4663 26.0828 30.5834 23.5924 33.2912 24.412C35.9989 25.2001 37.3213 28.983 36.1878 32.8289Z" fill="white"/>
<path d="M240.593 42.1268C242.135 60.3475 228.66 76.3931 210.461 77.9378C192.262 79.4825 176.236 65.9903 174.693 47.7695C173.15 29.5488 186.626 13.5032 204.825 11.9585C223.024 10.4138 239.05 23.906 240.593 42.1268Z" fill="#45B6E8"/>
<path d="M233.225 43.2936C234.579 59.1816 223.653 73.1151 208.792 74.3761C193.931 75.6371 180.801 63.7841 179.447 47.8961C178.094 32.0081 189.019 18.0746 203.88 16.8137C218.742 15.5527 231.871 27.4057 233.225 43.2936Z" fill="white"/>
<path d="M219.56 48.1804C220.379 57.6691 214.995 65.8653 207.564 66.4957C200.134 67.1262 193.459 59.9703 192.64 50.4817C191.821 40.993 197.205 32.7968 204.636 32.1663C212.067 31.5359 218.742 38.6918 219.56 48.1804Z" fill="#160D47"/>
<path d="M201.708 40.3304C200.385 43.5773 197.426 45.4372 195.127 44.4915C192.829 43.5458 192.042 40.1412 193.364 36.8943C194.687 33.6473 197.646 31.7874 199.945 32.7331C202.243 33.6788 203.03 37.0834 201.708 40.3304Z" fill="white"/>
<path d="M164.051 186.442C164.051 186.442 179.038 181.65 180.99 178.971C182.974 176.291 177.086 170.712 177.086 170.712L164.051 186.442Z" fill="#0077B4"/>
<path d="M155.519 155.801C155.519 155.801 178.472 161.412 180.266 170.239C181.368 175.787 163.768 187.64 163.768 187.64C163.768 187.64 178.188 190.603 177.905 193.251C177.622 195.899 167.294 193.535 167.294 193.535C167.294 193.535 176.425 201.195 174.662 202.393C172.899 203.56 164.933 195.899 164.933 195.899C164.933 195.899 171.702 205.924 169.939 206.807C168.176 207.689 152.276 195.3 154.322 187.041C156.369 178.782 170.821 177.899 171.104 169.356C171.293 163.651 154.921 160.498 154.921 160.498L155.519 155.77V155.801Z" fill="#45B6E8"/>
<path d="M161.438 154.542L146.325 151.736C145.947 150.255 145.601 148.773 145.254 147.323L153.976 150.57L155.33 132.412L142.515 132.98C142.389 132.128 142.232 131.277 142.106 130.458L121.168 136.384L96.42 130.458C96.294 131.12 96.1996 131.813 96.1051 132.475L80.5197 135.344L85.9038 152.713L94.5938 146.945C94.4679 149.214 94.3419 151.61 94.2475 154.037L79.7326 158.955L87.4781 175.411L93.9326 169.705C93.9326 173.866 93.9326 178.027 93.9326 181.936L155.77 182.251C154.228 177.995 152.685 173.393 151.142 168.633L156.022 171.88L161.406 154.51L161.438 154.542Z" fill="#FFFCE6"/>
<path d="M120.538 136.698L115.28 142.372L119.719 144.39L115.091 163.935L123.75 170.176L131.999 163.745L121.734 144.169L125.544 141.962L120.538 136.698Z" fill="#00669E"/>
<path d="M113.737 146.659L121.64 137.234L128.882 147.7L142.515 133.167C142.357 132.285 142.232 131.37 142.074 130.519L121.136 136.446L96.3885 130.519C96.294 131.087 96.1996 131.686 96.1051 132.285L113.706 146.691L113.737 146.659Z" fill="#C8DBD7"/>
<path d="M94.4994 207.974H165.972C165.972 207.974 159.58 193.662 153.346 175.315H93.9327C93.9327 192.716 94.4994 207.974 94.4994 207.974Z" fill="#716558"/>
<path d="M96.9554 178.246L151.74 178.467L153.157 183.858L97.1443 185.528L96.9554 178.246Z" fill="#3B2314"/>
<path d="M109.046 175.82L107.849 189.123C107.849 189.123 110.872 188.933 111.061 188.303C111.25 187.673 111.659 176.198 111.659 176.198L109.046 175.788V175.82Z" fill="#716558"/>
<path d="M139.461 176.45L141.256 187.924L144.688 187.514L141.665 176.229L139.461 176.45Z" fill="#716558"/>
<path d="M120.538 176.639L132.817 177.017L132.408 186.38L121.735 186.916L120.538 176.639Z" fill="#C8DBD7"/>
<path d="M122.333 178.246L130.991 178.498L130.708 184.929L123.183 185.308L122.333 178.246Z" fill="#3B2314"/>
<path d="M139.713 191.96C137.824 193.378 135.903 194.734 133.794 195.869C132.723 196.436 131.589 196.815 130.488 197.193C129.354 197.571 128.252 197.949 127.087 198.265L127.433 197.792L128.598 207.974H127.024L126.52 197.855V197.445L126.867 197.35C128 197.098 129.134 196.815 130.267 196.499C131.401 196.184 132.534 195.869 133.573 195.396C135.683 194.419 137.698 193.189 139.681 191.897L139.713 191.96Z" fill="#3B2314"/>
<path d="M107.346 187.358C107.062 192.591 102.15 196.247 97.585 197.855C96.8923 198.044 96.1996 198.233 95.5069 198.391C100.324 195.68 105.299 192.748 107.346 187.358Z" fill="#3B2314"/>
<path d="M149.064 185.024C151.111 190.383 156.085 193.347 160.903 196.058C160.21 195.932 159.517 195.711 158.824 195.522C154.259 193.946 149.347 190.257 149.064 185.024Z" fill="#3B2314"/>
</svg>
